<svg width="306" height="481" viewBox="0 0 306 481" fill="none" xmlns="http://www.w3.org/2000/svg"><path d="M112.544 148.084c-1.251 0-2.235-.359-2.954-1.078-.719-.719-1.078-1.783-1.078-3.192V138.2h1.036v5.572c0 1.157.261 2.011.784 2.562.523.551 1.26.826 2.212.826.961 0 1.703-.275 2.226-.826.523-.551.784-1.405.784-2.562V138.2h1.008v5.614c0 1.409-.359 2.473-1.078 3.192-.709.719-1.689 1.078-2.94 1.078Zm10.724-.014a3.447 3.447 0 0 1-1.722-.434 3.306 3.306 0 0 1-1.232-1.274c-.299-.56-.448-1.241-.448-2.044 0-.803.149-1.479.448-2.03.299-.56.705-.985 1.218-1.274a3.476 3.476 0 0 1 1.736-.434c.7 0 1.325.159 1.876.476.56.308.999.747 1.316 1.316.317.56.476 1.209.476 1.946 0 .747-.159 1.4-.476 1.96-.317.56-.756.999-1.316 1.316-.551.317-1.176.476-1.876.476Zm-3.794 2.646V140.65h.952v2.212l-.098 1.47.14 1.484v4.9h-.994Zm3.724-3.528c.523 0 .989-.117 1.4-.35a2.68 2.68 0 0 0 .98-1.008c.243-.439.364-.943.364-1.512 0-.569-.121-1.069-.364-1.498a2.68 2.68 0 0 0-.98-1.008 2.696 2.696 0 0 0-1.4-.364 2.77 2.77 0 0 0-1.414.364 2.68 2.68 0 0 0-.98 1.008c-.233.429-.35.929-.35 1.498s.117 1.073.35 1.512c.243.429.569.765.98 1.008.42.233.891.35 1.414.35Zm9.558.882a3.453 3.453 0 0 1-1.722-.434 3.306 3.306 0 0 1-1.232-1.274c-.298-.56-.448-1.241-.448-2.044 0-.803.15-1.479.448-2.03.299-.56.705-.985 1.218-1.274a3.479 3.479 0 0 1 1.736-.434c.7 0 1.326.159 1.876.476.56.308.999.747 1.316 1.316.318.56.476 1.209.476 1.946 0 .747-.158 1.4-.476 1.96-.317.56-.756.999-1.316 1.316-.55.317-1.176.476-1.876.476Zm-3.794 2.646V140.65h.952v2.212l-.098 1.47.14 1.484v4.9h-.994Zm3.724-3.528c.523 0 .99-.117 1.4-.35.411-.243.738-.579.98-1.008.243-.439.364-.943.364-1.512 0-.569-.121-1.069-.364-1.498a2.673 2.673 0 0 0-.98-1.008 2.694 2.694 0 0 0-1.4-.364c-.522 0-.994.121-1.414.364-.41.243-.737.579-.98 1.008-.233.429-.35.929-.35 1.498s.117 1.073.35 1.512c.243.429.57.765.98 1.008.42.233.892.35 1.414.35Zm8.886.882c-.765 0-1.437-.159-2.016-.476a3.585 3.585 0 0 1-1.358-1.33c-.326-.569-.49-1.218-.49-1.946s.154-1.372.462-1.932c.318-.56.747-.999 1.288-1.316a3.552 3.552 0 0 1 1.848-.49c.691 0 1.302.159 1.834.476.542.308.966.747 1.274 1.316.308.56.462 1.209.462 1.946a.871.871 0 0 1-.014.154v.154h-6.398v-.742h5.866l-.392.294c0-.532-.116-1.003-.35-1.414a2.46 2.46 0 0 0-.924-.98c-.392-.233-.844-.35-1.358-.35-.504 0-.956.117-1.358.35-.401.233-.714.56-.938.98-.224.42-.336.901-.336 1.442v.154c0 .56.122 1.055.364 1.484.252.42.598.751 1.036.994.448.233.957.35 1.526.35.448 0 .864-.079 1.246-.238a2.592 2.592 0 0 0 1.008-.728l.56.644a3.133 3.133 0 0 1-1.232.896 4.096 4.096 0 0 1-1.61.308Zm5.328-.07v-7.35h.952v2.002l-.098-.35c.205-.56.55-.985 1.036-1.274.485-.299 1.087-.448 1.806-.448v.966h-.112a.484.484 0 0 0-.112-.014c-.775 0-1.382.238-1.82.714-.439.467-.658 1.134-.658 2.002V148h-.994Zm11.607.07c-.691 0-1.223-.187-1.596-.56-.373-.373-.56-.901-.56-1.582v-6.902h.994v6.846c0 .429.107.761.322.994.224.233.541.35.952.35.439 0 .803-.126 1.092-.378l.35.714a1.835 1.835 0 0 1-.714.392 2.82 2.82 0 0 1-.84.126Zm-3.472-6.594v-.826h4.55v.826h-4.55Zm9.698 6.594c-.766 0-1.438-.159-2.016-.476a3.57 3.57 0 0 1-1.358-1.33c-.327-.569-.49-1.218-.49-1.946s.154-1.372.462-1.932c.317-.56.746-.999 1.288-1.316a3.547 3.547 0 0 1 1.848-.49c.69 0 1.302.159 1.834.476a3.27 3.27 0 0 1 1.274 1.316c.308.56.462 1.209.462 1.946a.978.978 0 0 1-.014.154v.154h-6.398v-.742h5.866l-.392.294c0-.532-.117-1.003-.35-1.414a2.46 2.46 0 0 0-.924-.98c-.392-.233-.845-.35-1.358-.35-.504 0-.957.117-1.358.35-.402.233-.714.56-.938.98-.224.42-.336.901-.336 1.442v.154c0 .56.121 1.055.364 1.484.252.42.597.751 1.036.994.448.233.956.35 1.526.35.448 0 .863-.079 1.246-.238a2.592 2.592 0 0 0 1.008-.728l.56.644a3.147 3.147 0 0 1-1.232.896 4.1 4.1 0 0 1-1.61.308Zm8.449 0c-.766 0-1.438-.159-2.016-.476a3.57 3.57 0 0 1-1.358-1.33c-.327-.569-.49-1.218-.49-1.946s.154-1.372.462-1.932c.317-.56.746-.999 1.288-1.316a3.547 3.547 0 0 1 1.848-.49c.69 0 1.302.159 1.834.476a3.27 3.27 0 0 1 1.274 1.316c.308.56.462 1.209.462 1.946a.978.978 0 0 1-.014.154v.154h-6.398v-.742h5.866l-.392.294c0-.532-.117-1.003-.35-1.414a2.46 2.46 0 0 0-.924-.98c-.392-.233-.845-.35-1.358-.35-.504 0-.957.117-1.358.35-.402.233-.714.56-.938.98-.224.42-.336.901-.336 1.442v.154c0 .56.121 1.055.364 1.484.252.42.597.751 1.036.994.448.233.956.35 1.526.35.448 0 .863-.079 1.246-.238a2.592 2.592 0 0 0 1.008-.728l.56.644a3.147 3.147 0 0 1-1.232.896 4.1 4.1 0 0 1-1.61.308Zm7.651 0c-.691 0-1.223-.187-1.596-.56-.373-.373-.56-.901-.56-1.582v-6.902h.994v6.846c0 .429.107.761.322.994.224.233.541.35.952.35.439 0 .803-.126 1.092-.378l.35.714a1.835 1.835 0 0 1-.714.392 2.82 2.82 0 0 1-.84.126Zm-3.472-6.594v-.826h4.55v.826h-4.55Zm10.588-.896c.597 0 1.12.117 1.568.35.457.224.812.569 1.064 1.036.261.467.392 1.055.392 1.764V148h-.994v-4.172c0-.775-.196-1.358-.588-1.75-.383-.401-.924-.602-1.624-.602-.523 0-.98.107-1.372.322a2.156 2.156 0 0 0-.896.91c-.206.392-.308.868-.308 1.428V148h-.994v-10.388h.994v5.054l-.196-.378a2.633 2.633 0 0 1 1.12-1.246c.513-.308 1.124-.462 1.834-.462ZM109.596 335v-9.8h1.036v8.904h5.488V335h-6.524Zm10.921.07c-.71 0-1.349-.159-1.918-.476a3.633 3.633 0 0 1-1.33-1.33c-.327-.569-.49-1.218-.49-1.946 0-.737.163-1.386.49-1.946.326-.56.77-.999 1.33-1.316.56-.317 1.199-.476 1.918-.476.728 0 1.372.159 1.932.476a3.406 3.406 0 0 1 1.33 1.316c.326.56.49 1.209.49 1.946 0 .728-.164 1.377-.49 1.946a3.51 3.51 0 0 1-1.33 1.33c-.57.317-1.214.476-1.932.476Zm0-.882c.532 0 1.003-.117 1.414-.35.41-.243.732-.579.966-1.008.242-.439.364-.943.364-1.512 0-.579-.122-1.083-.364-1.512a2.486 2.486 0 0 0-.966-.994 2.699 2.699 0 0 0-1.4-.364c-.523 0-.99.121-1.4.364a2.566 2.566 0 0 0-.98.994c-.243.429-.364.933-.364 1.512 0 .569.121 1.073.364 1.512.242.429.569.765.98 1.008.41.233.872.35 1.386.35Zm7.074.812-2.772-7.35h.952l2.52 6.818h-.434l2.59-6.818h.854l2.562 6.818h-.434l2.562-6.818h.91l-2.786 7.35h-.938l-2.464-6.412h.294L128.529 335h-.938Zm13.724.07c-.766 0-1.438-.159-2.016-.476a3.57 3.57 0 0 1-1.358-1.33c-.327-.569-.49-1.218-.49-1.946s.154-1.372.462-1.932c.317-.56.746-.999 1.288-1.316a3.547 3.547 0 0 1 1.848-.49c.69 0 1.302.159 1.834.476a3.27 3.27 0 0 1 1.274 1.316c.308.56.462 1.209.462 1.946a.978.978 0 0 1-.014.154v.154h-6.398v-.742h5.866l-.392.294c0-.532-.117-1.003-.35-1.414a2.46 2.46 0 0 0-.924-.98c-.392-.233-.845-.35-1.358-.35-.504 0-.957.117-1.358.35-.402.233-.714.56-.938.98-.224.42-.336.901-.336 1.442v.154c0 .56.121 1.055.364 1.484.252.42.597.751 1.036.994.448.233.956.35 1.526.35.448 0 .863-.079 1.246-.238a2.592 2.592 0 0 0 1.008-.728l.56.644a3.147 3.147 0 0 1-1.232.896 4.1 4.1 0 0 1-1.61.308Zm5.327-.07v-7.35h.952v2.002l-.098-.35c.205-.56.551-.985 1.036-1.274.485-.299 1.087-.448 1.806-.448v.966h-.112a.477.477 0 0 0-.112-.014c-.775 0-1.381.238-1.82.714-.439.467-.658 1.134-.658 2.002V335h-.994Zm11.607.07c-.691 0-1.223-.187-1.596-.56-.373-.373-.56-.901-.56-1.582v-6.902h.994v6.846c0 .429.107.761.322.994.224.233.541.35.952.35.439 0 .803-.126 1.092-.378l.35.714a1.835 1.835 0 0 1-.714.392 2.82 2.82 0 0 1-.84.126Zm-3.472-6.594v-.826h4.55v.826h-4.55Zm9.698 6.594c-.766 0-1.438-.159-2.016-.476a3.57 3.57 0 0 1-1.358-1.33c-.327-.569-.49-1.218-.49-1.946s.154-1.372.462-1.932c.317-.56.746-.999 1.288-1.316a3.547 3.547 0 0 1 1.848-.49c.69 0 1.302.159 1.834.476a3.27 3.27 0 0 1 1.274 1.316c.308.56.462 1.209.462 1.946a.978.978 0 0 1-.014.154v.154h-6.398v-.742h5.866l-.392.294c0-.532-.117-1.003-.35-1.414a2.46 2.46 0 0 0-.924-.98c-.392-.233-.845-.35-1.358-.35-.504 0-.957.117-1.358.35-.402.233-.714.56-.938.98-.224.42-.336.901-.336 1.442v.154c0 .56.121 1.055.364 1.484.252.42.597.751 1.036.994.448.233.956.35 1.526.35.448 0 .863-.079 1.246-.238a2.592 2.592 0 0 0 1.008-.728l.56.644a3.147 3.147 0 0 1-1.232.896 4.1 4.1 0 0 1-1.61.308Zm8.449 0c-.765 0-1.437-.159-2.016-.476a3.578 3.578 0 0 1-1.358-1.33c-.327-.569-.49-1.218-.49-1.946s.154-1.372.462-1.932c.317-.56.747-.999 1.288-1.316a3.552 3.552 0 0 1 1.848-.49c.691 0 1.302.159 1.834.476a3.27 3.27 0 0 1 1.274 1.316c.308.56.462 1.209.462 1.946a.978.978 0 0 1-.014.154v.154h-6.398v-.742h5.866l-.392.294c0-.532-.117-1.003-.35-1.414a2.46 2.46 0 0 0-.924-.98c-.392-.233-.845-.35-1.358-.35-.504 0-.957.117-1.358.35-.401.233-.714.56-.938.98-.224.42-.336.901-.336 1.442v.154c0 .56.121 1.055.364 1.484.252.42.597.751 1.036.994.448.233.957.35 1.526.35.448 0 .863-.079 1.246-.238a2.592 2.592 0 0 0 1.008-.728l.56.644a3.14 3.14 0 0 1-1.232.896 4.096 4.096 0 0 1-1.61.308Zm7.651 0c-.69 0-1.222-.187-1.596-.56-.373-.373-.56-.901-.56-1.582v-6.902h.994v6.846c0 .429.108.761.322.994.224.233.542.35.952.35.439 0 .803-.126 1.092-.378l.35.714a1.835 1.835 0 0 1-.714.392c-.27.084-.55.126-.84.126Zm-3.472-6.594v-.826h4.55v.826h-4.55Zm10.588-.896c.597 0 1.12.117 1.568.35.457.224.812.569 1.064 1.036.261.467.392 1.055.392 1.764V335h-.994v-4.172c0-.775-.196-1.358-.588-1.75-.383-.401-.924-.602-1.624-.602-.523 0-.98.107-1.372.322a2.156 2.156 0 0 0-.896.91c-.206.392-.308.868-.308 1.428V335h-.994v-10.388h.994v5.054l-.196-.378a2.633 2.633 0 0 1 1.12-1.246c.513-.308 1.124-.462 1.834-.462Z" fill="#fff"/><path clip-rule="evenodd" d="m248.179 113.902-1.647 1.063c-4.066 2.937-8.479 4.49-12.267 10.398-3.816 5.952-1.473 14.309 1.73 18.861 3.529 5.013 9.662 7.791 17.253 6.488 8.321-1.43 10.111-4.157 14.252-8.564 3.584-11.013 2.096-26.106-9.562-27.479-2.289-1.444-2.338-.803-5.286-.733-1.325.031-1.91.155-3.106-.16-.802-.111-1.066-.041-1.367.126ZM248.031 113.208c-.097-.208-.208-.003-.629-.632 2.643-.286 1.382.565 3.927-1.631.784-.676 1.865-1.97 2.457-2.985 1.533-2.626 1.206-5.663 1.497-8.86-2.135-2.148-3.585-6.66-5.872-9.028-3.081-3.19-6.563-3.514-11.103-2.563l-4.872 2.161c-3.418 3.119-11.924 7.405-5.942 18.422 4.731 8.714 12.442 5.25 20.538 5.115l-.001.001ZM255.439 306.806c.05.127-.007.043-.046.72l-11.208 1.085c-8.848 4.28-7.359 9.503-9.54 20.12-.581 7.566-1.683 10.307 5.847 13.555 5.146 2.22 12.849 3.537 18.776 1.698 12.305-3.819 14.058-16.768 12.442-28.342-.995-4.249-3.252-7.26-7.34-8.511l-2.364-.639c-.183-.067-6.403.38-6.566.313l-.001.001ZM257.268 306.243l3.069-.549c7.872-1.908 13.93-4.497 15.815-12.437 1.843-7.762.455-20.961-4.543-24.264-2.736-6.808-27.344-5.729-31.837 12.306-.931 3.74-2.808 12.809.075 15.842-.068 3.91 3.649 6.388 7.039 6.589.265 2.085 1.274 1.662 3.752 2.077.702.117 2.299.245 2.801.383 1.451.399 3.732-.193 3.829.053ZM50.825 347.919c-4.002.117-7.52 5.695-8.069 9.975-.781 6.098.881 10.776 3.63 14.286 6.634 8.472 16.447 8.062 27.399 8.054 2.782-3.11 6.439-3.425 7.697-10.166 1.021-5.466-.006-11.046-2.493-15.179-6.187-10.279-12.6-10.094-25.88-8.926-.35 2.141 1.15-.435-.785 1.498-.986.986-.5.211-1.5.458ZM39.334 304.808c4.608-.559 8.18.313 13.73-.646 2.725.413 6.85-2.716 8.079-4.851 2.014-3.506 1.362-9.527 1.059-13.857-4.07-24.771-28.757-21.057-32.824-17.214-8.16 7.712-7.572 37.819 9.956 36.568ZM228.079 380.269c11.943-.226 21.267.594 28.041-8.859 6.665-9.299 3.542-20.622-6.055-24.503-4.223-1.723-7.864-1.501-13.007-1.295-8.644.795-13.623 6.278-15.843 13.122-1.33 4.097-1.596 9.206-.323 13.216 1.68 5.292 5.282 5.232 7.187 8.319ZM39.174 147.876c.589 2.461 10.897 3.505 14.544 2.914 5.1-.826 8.766-3.952 11.242-8.266 5.959-10.385 1.124-20.239-7.586-24.936-7.856-5.931-20.182-5.36-25.048 4.692-4.589 9.479-2.106 22.553 6.848 25.595v.001ZM188.505 442.307c3.03 2.772 5.663 9.19 17.806-.967 3.055-2.556 4.224-6.186 1.957-9.8-1.45-2.312-3.608-3.835-5.516-5.351l-2.488-2.251c-2.235.651-6.033-.052-8.445.757-2.833.95-3.541 2.256-5.227 3.592-.764 5.133 1.912 14.062 1.913 14.02ZM187.288 441.854c-2.703-3.968-6.633-13.808-14.966-8.417-4.524 2.927-4.088 13.503.221 20.408 4.54.528 7.966.403 11.293-1.901 3.724-2.58 3.343-5.028 3.452-10.09ZM241.757 175.931c2.542 4.852 6.438 8.928 12.61 10.282 6.375 1.399 16.479 1.29 19.823-3.06 2.78-2.622 2.941-3.544 4.672-7.222.976-8.43 1.597-18.726-4.607-23.163-4.893-3.498-19.419-2.942-22.717.884-9.149 2.471-11.003 12.553-9.781 22.279ZM57.208 342.978c3.504.119 7.653-1.681 9.484-4.433 2.2-3.304.892-7.552.192-11.383-1.62-8.86-.894-15.681-9.275-18.112l-9.092-1.211-2.167-1.058c-.133-.079-.378-.263-.569-.391-2.004-.527-2.704-.393-4.203.037-6.643.626-10.456 3.471-11.422 9.846-1.819 7.196-.618 15.616 3.302 21.187 4.105 5.836 9.948 7.928 18.769 7.551 4.98-2.034 4.883-1.677 4.98-2.034v.001ZM68.882 88.75l.233 1.187c.791-.178 10.47-.13 13.101-.34 3.231-3.04 6.047-3.429 8.392-7.232 2.69-4.366 1.56-8.262-1.177-11.181-3.207-3.421-14.881-12.787-19.974-6.584-5.813 1.51-15.814 20.883-.575 24.15ZM54.897 114.09c2.591 2.174 9.008 1.582 12.21.559 3.946-1.26 5.89-4.373 7.288-7.206 4.961-10.042-3.365-13.494-7.58-17.72l-5.853-2.005c-6.479-.553-8.55 1.502-11.406 5.772-2.878 4.303-3.648 7.062-3.355 12.638 1.47 3.991 4.078 7.501 8.696 7.962ZM176.162 35.007c2.773-8.759-.834-12.936-8.576-15.044-7.686-2.093-15.299-1.303-15.894 7.732-1.804 27.379 20.403 23.336 23.509 8.794l.962-1.482h-.001ZM96.76 429.855c-1.15 1.22 1.761.987-2.055.987l-1.368 1.039c-.581 8.081 1.182 9.698 7.357 12.741 5.727 2.823 9.695 3.444 12.828-2.539 2.056-3.926 3.971-11.257.491-14.717-4.387-4.363-9.005-3.045-15.34-1.467l-1.047.919c-.179.157-.739 2.538-.867 3.037ZM84.335 64.835c7.856 8.055 33.091 5.204 16.51-16.568-4.957-6.51-9.943-8.451-16.479-1.439-3.697 3.967-8.96 13.196-1.454 16.857.143 1.172-.192.688 1.423 1.15ZM221.537 63.072c-1.203 1.681 1.496 1.41-2.789 1.737-2.393 4.096-12.231 6.401-9.416 15.354 1.858 5.912 8.181 9.723 15.659 9.958l7.692-.617c.582-.587.445-.445 1.362-1.093l.978-.63c6.405-4.21 7.203-8.972 2.984-16.31-8.201-14.266-12.969-6.514-16.47-8.399ZM83.398 404.635c8.39-4.57 8.198-22.226-9.613-24.401l-1.098.482c-4.302 1.801-7.863 3.147-10.317 7.129-1.515.93-1.745 1.368-2.319 3.573-.82 12.113 6.117 18.562 17.888 16.508 1.305-2.099-.162-.769 1.83-1.941 1.713-1.008.097-.224 2.463-.707 2.057.216 1.073.257 1.166-.643ZM104.863 50.8c5.235 3.46 10.466 7.157 17.391 1.675 4.762-3.77 3.024-13.68.347-19.178-6.696-13.75-31.278 2.037-21.452 12.598l3.714 4.906Z" stroke="#fff" stroke-width=".756" stroke-miterlimit="22.926"/><path clip-rule="evenodd" d="M129.318 453.885c9.161-13.002-.269-27.522-9.367-19.812-9.445 8.005-7.979 21.76 9.367 19.812ZM97.525 426.839c.17-.145.878-.597.004-1.445-1.147-1.113-1.125-1.624-1.53-3.763 1.516-1.404.382-1.208 3.103-1.311 1.372-1.143.45-2.48-.195-4.128l-2.19-3.01c-.116-2.665-1.886-3.373-5.328-5.241-1.906-.733-2.638-1.179-4.751-1.478-4.068-.498-3.796-.741-8.317 2.156-1.63 1.917-1.867 2.656-2.912 6.413-.878 3.154-.003 6.561.73 8.771 6.063 6.591 10.242 6.438 19.606 4.097.628-.407 1.057-.626 1.78-1.061ZM238.959 386.51c-6.741-5.494-7.949-4.23-10.88-6.241-6.586.936-8.831 2.073-12.301 6.802-1.461 1.991-2.62 3.977-2.656 6.907-.027 2.285.658 5.922 2.251 6.685 1.315 3.506 1.857 2.673 3.475 5.224 12.591 5.558 23.944 1.079 22.994-14.964l-2.883-4.413Z" stroke="#fff" stroke-width=".756" stroke-miterlimit="22.926"/><path clip-rule="evenodd" d="M139.424 436.462c-7.333 4.205-11.11 23.513 5.679 21.91 9.784-.933 5.427-28.277-5.679-21.91ZM200.462 69.207c1.028-.172 12.479.808 16.422-4.42l1.863.022.268-1.49c10.747-9.37-9.913-28.858-16.296-16.82l-1.623.715c-6.883 10.78-10.138 11.527-1.983 20.408.872.95.402.302 1.349 1.585ZM202.285 424.304c2.008 1.042 2.366 2.093 4.731 3.697 4.171 1.459 7.5 2.642 11.888.621 2.345-1.08 5.936-4.515 6.994-6.885 2.396-5.367-.228-15.552-12.151-14.971l-1.042.151c-3.074 2.403-5.06 2.574-7.934 6.055-3.484 4.222-2.346 6.067-2.486 11.332Z" stroke="#fff" stroke-width=".756" stroke-miterlimit="22.926"/><path clip-rule="evenodd" d="M166.776 442.28c-1.673-8.411-14.63-11.631-15.054 6.227-.154 6.486-.02 10.23 7.197 9.894 6.009-.279 9.317-2.835 9.593-9.125-.172-3.46-.237-4.609-1.736-6.996Z" stroke="#fff" stroke-width=".756" stroke-miterlimit="22.926"/><path d="M3.726 212h-.88v-5.601c-.21.202-.49.404-.834.606a5.81 5.81 0 0 1-.923.454v-.85a5.325 5.325 0 0 0 1.289-.839c.368-.329.628-.648.781-.958h.567V212ZM7.034 171.155V172H2.303a1.55 1.55 0 0 1 .102-.61c.12-.323.313-.64.576-.952.267-.313.651-.674 1.153-1.084.778-.639 1.303-1.143 1.577-1.514.273-.375.41-.728.41-1.06 0-.348-.125-.641-.376-.879-.247-.241-.571-.361-.972-.361-.423 0-.761.127-1.015.381-.254.254-.383.605-.386 1.055l-.903-.093c.062-.674.294-1.187.698-1.538.404-.355.946-.533 1.626-.533.687 0 1.23.191 1.63.572.401.381.601.853.601 1.416 0 .286-.058.568-.175.845-.118.276-.313.568-.586.874-.27.306-.721.725-1.353 1.259-.527.443-.866.744-1.015.904-.15.156-.274.314-.372.473h3.511ZM10.42 128.11l.879-.117c.1.498.272.858.513 1.079.244.218.54.327.888.327.414 0 .762-.143 1.045-.429.287-.287.43-.642.43-1.065 0-.403-.132-.735-.396-.996-.263-.263-.599-.395-1.006-.395-.166 0-.372.032-.62.097l.098-.771c.059.006.106.01.142.01.374 0 .71-.098 1.01-.293.3-.196.45-.497.45-.904 0-.322-.11-.589-.328-.8-.218-.212-.5-.318-.844-.318a1.2 1.2 0 0 0-.855.322c-.228.215-.374.538-.44.967l-.878-.156c.107-.589.351-1.045.732-1.367.381-.326.855-.489 1.421-.489.39 0 .75.085 1.08.254.328.166.579.394.751.684.176.29.264.597.264.923 0 .309-.083.591-.25.845-.165.253-.41.455-.736.605.423.098.752.301.986.61.234.306.351.691.351 1.153 0 .625-.227 1.155-.683 1.592-.456.432-1.032.649-1.729.649-.628 0-1.15-.187-1.567-.562-.414-.374-.65-.859-.708-1.455ZM29.232 96v-1.714h-3.105v-.805l3.267-4.64h.717v4.64h.967v.805h-.967V96h-.879Zm0-2.52v-3.227l-2.24 3.228h2.24ZM44.415 66.125l.923-.078c.068.45.226.788.474 1.016.25.224.551.336.903.336.423 0 .781-.16 1.074-.478.293-.32.44-.742.44-1.27 0-.5-.142-.896-.425-1.186-.28-.29-.648-.435-1.104-.435-.283 0-.539.065-.766.196a1.468 1.468 0 0 0-.537.498l-.826-.108.694-3.676h3.56v.84h-2.857l-.386 1.923c.43-.3.88-.45 1.353-.45.625 0 1.152.217 1.582.65.43.433.644.99.644 1.67 0 .648-.189 1.208-.566 1.68-.46.58-1.086.87-1.88.87-.651 0-1.183-.183-1.597-.548-.41-.364-.644-.848-.703-1.45ZM68.976 38.595l-.874.068c-.079-.345-.19-.596-.333-.752a1.163 1.163 0 0 0-.878-.376c-.28 0-.526.078-.738.235-.276.201-.495.496-.654.883-.16.388-.242.94-.249 1.656a2.037 2.037 0 0 1 1.738-.953c.586 0 1.084.217 1.494.65.414.43.62.986.62 1.67 0 .449-.097.867-.292 1.255a2.105 2.105 0 0 1-.796.884 2.18 2.18 0 0 1-1.153.307c-.732 0-1.33-.269-1.792-.806-.462-.54-.693-1.429-.693-2.666 0-1.383.255-2.389.767-3.017.445-.547 1.046-.82 1.801-.82.563 0 1.024.157 1.382.473.362.316.578.752.65 1.309Zm-3.59 3.086c0 .302.064.592.191.869.13.277.311.488.542.635.231.143.474.214.728.214.37 0 .69-.15.957-.449.267-.3.4-.706.4-1.22 0-.495-.132-.884-.395-1.167a1.296 1.296 0 0 0-.996-.43c-.398 0-.734.143-1.011.43-.277.283-.415.655-.415 1.118ZM101.474 14.78v-.845h4.633v.683c-.455.485-.908 1.13-1.357 1.934-.446.804-.791 1.63-1.035 2.48a9.217 9.217 0 0 0-.337 1.968h-.903c.009-.563.12-1.244.332-2.041.211-.797.514-1.566.908-2.305.397-.742.819-1.367 1.264-1.875h-3.505ZM133.768 5.118c-.365-.133-.635-.324-.811-.571a1.493 1.493 0 0 1-.264-.889c0-.52.188-.958.562-1.313.374-.355.872-.533 1.494-.533.625 0 1.128.183 1.509.547.381.362.571.803.571 1.324 0 .332-.088.621-.264.869-.172.244-.436.433-.791.566.44.143.774.375 1.001.694.232.319.347.7.347 1.142 0 .612-.216 1.126-.649 1.543-.433.417-1.003.625-1.709.625-.707 0-1.276-.208-1.709-.625-.433-.42-.65-.942-.65-1.567 0-.466.117-.855.352-1.167.237-.316.574-.53 1.011-.645Zm-.176-1.49c0 .34.109.616.327.831.218.215.501.322.85.322.338 0 .615-.106.83-.317.218-.215.327-.477.327-.786 0-.323-.113-.593-.337-.81a1.126 1.126 0 0 0-.83-.333 1.15 1.15 0 0 0-.835.322 1.035 1.035 0 0 0-.332.772Zm-.283 3.307c0 .25.058.493.175.727.121.234.298.417.533.547.234.127.486.19.756.19.42 0 .767-.135 1.04-.405.274-.27.411-.613.411-1.03 0-.423-.142-.773-.425-1.05-.28-.277-.632-.415-1.055-.415-.413 0-.757.137-1.03.41a1.4 1.4 0 0 0-.405 1.026ZM167.547 7.345l.845-.078c.071.397.208.685.41.864.202.179.46.268.776.268.27 0 .506-.061.708-.185.205-.124.373-.288.503-.493.13-.209.239-.489.327-.84a4.407 4.407 0 0 0 .127-1.25 2.035 2.035 0 0 1-1.709.942 2 2 0 0 1-1.504-.644c-.41-.43-.615-.996-.615-1.7 0-.725.213-1.31.64-1.752.429-.443.966-.664 1.611-.664.466 0 .89.125 1.274.375.388.251.681.61.879 1.075.202.462.303 1.133.303 2.011 0 .915-.099 1.644-.298 2.188-.198.54-.495.952-.888 1.235-.391.283-.85.425-1.377.425-.56 0-1.018-.155-1.372-.464-.355-.312-.569-.75-.64-1.313Zm3.599-3.16c0-.504-.136-.904-.406-1.2a1.255 1.255 0 0 0-.967-.445c-.39 0-.73.16-1.02.479-.29.319-.435.732-.435 1.24 0 .456.137.827.411 1.113.276.283.616.425 1.02.425.407 0 .741-.142 1.001-.425.264-.286.396-.682.396-1.186ZM200.726 18h-.879v-5.6c-.212.201-.49.403-.835.605-.342.202-.65.353-.923.454v-.85a5.32 5.32 0 0 0 1.289-.84c.368-.328.628-.647.781-.957h.567V18Zm2.255-3.53c0-.847.087-1.527.259-2.041.176-.518.435-.917.777-1.197.345-.28.778-.42 1.298-.42.385 0 .721.079 1.011.235.29.153.529.376.718.669.189.29.337.644.444 1.064.108.417.161.98.161 1.69 0 .84-.086 1.518-.258 2.036-.173.514-.432.913-.777 1.196-.342.28-.774.42-1.299.42-.69 0-1.232-.247-1.626-.742-.472-.596-.708-1.566-.708-2.91Zm.904 0c0 1.175.136 1.958.41 2.348.277.388.617.581 1.02.581.404 0 .743-.195 1.016-.585.277-.391.415-1.172.415-2.344 0-1.179-.138-1.962-.415-2.349-.273-.387-.615-.581-1.025-.581-.404 0-.726.17-.967.513-.303.436-.454 1.242-.454 2.417ZM233.726 42h-.879v-5.6c-.212.201-.49.403-.835.605-.342.202-.65.353-.923.454v-.85a5.32 5.32 0 0 0 1.289-.84c.368-.328.628-.647.781-.956h.567V42Zm4.824 0h-.879v-5.6c-.212.201-.49.403-.835.605a5.805 5.805 0 0 1-.923.454v-.85a5.3 5.3 0 0 0 1.289-.84c.368-.328.628-.647.781-.956h.567V42ZM254.726 68h-.879v-5.6c-.212.201-.49.403-.835.605-.342.202-.65.353-.923.454v-.85a5.32 5.32 0 0 0 1.289-.84c.368-.328.628-.647.781-.956h.567V68Zm6.875-.845V68h-4.732a1.562 1.562 0 0 1 .103-.61c.12-.323.312-.64.576-.953.267-.312.651-.673 1.152-1.084.778-.637 1.304-1.142 1.577-1.513.274-.375.411-.728.411-1.06 0-.348-.126-.641-.376-.879-.248-.24-.572-.361-.972-.361-.423 0-.762.127-1.016.38-.254.255-.382.606-.386 1.056l-.903-.093c.062-.674.295-1.187.698-1.538.404-.355.946-.532 1.626-.532.687 0 1.231.19 1.631.57.401.382.601.854.601 1.417 0 .286-.059.568-.176.845-.117.276-.312.568-.586.874-.27.305-.721.725-1.352 1.26-.528.442-.866.743-1.016.903-.15.156-.273.314-.371.473h3.511ZM268.726 96h-.879v-5.6c-.212.201-.49.403-.835.605-.342.202-.65.353-.923.454v-.85a5.32 5.32 0 0 0 1.289-.84c.368-.328.628-.647.781-.957h.567V96Zm2.26-1.89.879-.117c.101.498.272.858.513 1.08.244.217.54.326.889.326.413 0 .761-.143 1.045-.43.286-.286.429-.64.429-1.064 0-.403-.132-.735-.395-.996-.264-.264-.599-.395-1.006-.395a2.52 2.52 0 0 0-.62.097l.097-.771c.059.006.106.01.142.01.374 0 .711-.098 1.011-.293.299-.196.449-.497.449-.904 0-.322-.109-.589-.327-.8-.218-.212-.5-.318-.845-.318-.342 0-.627.108-.854.322-.228.215-.375.537-.44.967l-.879-.156c.108-.59.352-1.045.733-1.367.381-.326.854-.489 1.421-.489.39 0 .75.085 1.079.254.328.166.579.394.752.684.175.29.263.597.263.923 0 .31-.083.59-.249.845-.166.254-.412.455-.737.605.423.098.752.301.986.61.235.306.352.69.352 1.153a2.12 2.12 0 0 1-.684 1.592c-.455.433-1.032.649-1.728.649-.629 0-1.151-.187-1.568-.562-.413-.374-.649-.859-.708-1.455ZM285.726 130h-.879v-5.601c-.212.202-.49.404-.835.606-.342.202-.65.353-.923.454v-.85a5.338 5.338 0 0 0 1.289-.839c.368-.329.628-.648.781-.958h.567V130Zm5.073 0v-1.714h-3.106v-.806l3.267-4.638h.718v4.638h.967v.806h-.967V130h-.879Zm0-2.52v-3.227l-2.241 3.227h2.241ZM296.726 172h-.879v-5.601c-.212.202-.49.404-.835.606-.342.202-.65.353-.923.454v-.85a5.338 5.338 0 0 0 1.289-.839c.368-.329.628-.648.781-.958h.567V172Zm2.255-1.875.923-.078c.069.449.227.788.474 1.015.251.225.552.337.903.337.423 0 .781-.159 1.074-.478.293-.319.44-.742.44-1.27 0-.501-.142-.896-.425-1.186-.28-.29-.648-.435-1.103-.435a1.51 1.51 0 0 0-.767.196 1.467 1.467 0 0 0-.537.498l-.825-.108.693-3.677h3.56v.84h-2.857l-.386 1.924c.43-.299.881-.449 1.353-.449.625 0 1.152.216 1.582.649.43.433.645.99.645 1.67 0 .648-.189 1.208-.567 1.68-.459.579-1.085.869-1.88.869-.651 0-1.183-.182-1.596-.547-.411-.364-.645-.848-.704-1.45ZM297.726 212h-.879v-5.601c-.212.202-.49.404-.835.606-.342.202-.65.353-.923.454v-.85a5.338 5.338 0 0 0 1.289-.839c.368-.329.628-.648.781-.958h.567V212Zm6.816-5.405-.874.068c-.078-.345-.189-.596-.332-.752a1.163 1.163 0 0 0-.879-.376c-.28 0-.526.078-.737.235-.277.201-.495.496-.655.883-.159.388-.242.939-.249 1.656.212-.323.471-.562.777-.718a2.09 2.09 0 0 1 .962-.235c.586 0 1.084.217 1.494.65.413.43.62.986.62 1.67 0 .449-.098.867-.293 1.255a2.099 2.099 0 0 1-.796.883 2.17 2.17 0 0 1-1.152.308c-.733 0-1.33-.268-1.792-.806-.462-.54-.694-1.429-.694-2.666 0-1.383.256-2.389.767-3.017.446-.547 1.047-.821 1.802-.821.563 0 1.024.158 1.382.474.361.316.577.752.649 1.309Zm-3.589 3.086c0 .302.064.592.191.869.13.276.31.488.542.635.231.143.473.214.727.214.371 0 .69-.149.957-.449.267-.299.401-.706.401-1.221 0-.494-.132-.883-.396-1.167a1.298 1.298 0 0 0-.996-.429c-.397 0-.734.143-1.011.429-.277.284-.415.656-.415 1.119ZM296.726 288h-.879v-5.601c-.212.202-.49.404-.835.606-.342.202-.65.353-.923.454v-.85a5.338 5.338 0 0 0 1.289-.839c.368-.329.628-.648.781-.958h.567V288Zm2.314-6.221v-.844h4.634v.683c-.456.485-.908 1.13-1.358 1.934a11.852 11.852 0 0 0-1.035 2.48 9.218 9.218 0 0 0-.337 1.968h-.903c.01-.563.12-1.243.332-2.041a10.75 10.75 0 0 1 .908-2.305c.397-.742.819-1.367 1.265-1.875h-3.506ZM290.726 329h-.879v-5.601c-.212.202-.49.404-.835.606-.342.202-.65.353-.923.454v-.85a5.338 5.338 0 0 0 1.289-.839c.368-.329.628-.648.781-.958h.567V329Zm3.608-3.882c-.365-.133-.635-.324-.811-.571a1.502 1.502 0 0 1-.263-.889c0-.521.187-.958.561-1.313.375-.355.873-.533 1.494-.533.625 0 1.128.183 1.509.547.381.362.572.803.572 1.324 0 .332-.088.621-.264.869-.173.244-.436.433-.791.566.439.143.773.375 1.001.694.231.319.346.699.346 1.142 0 .612-.216 1.126-.649 1.543-.433.417-1.003.625-1.709.625-.706 0-1.276-.208-1.709-.625-.433-.42-.649-.942-.649-1.567 0-.466.117-.855.351-1.167.238-.316.575-.531 1.011-.645Zm-.176-1.489c0 .338.109.615.327.83.218.215.502.322.85.322.339 0 .615-.106.83-.317.218-.215.327-.477.327-.786 0-.323-.112-.593-.337-.811a1.127 1.127 0 0 0-.83-.332c-.335 0-.613.108-.835.322a1.04 1.04 0 0 0-.332.772Zm-.283 3.306c0 .25.059.493.176.727.12.234.298.417.532.547.234.127.487.19.757.19.42 0 .766-.135 1.04-.405.273-.27.41-.613.41-1.03 0-.423-.142-.773-.425-1.05-.28-.277-.631-.415-1.054-.415a1.4 1.4 0 0 0-1.031.41c-.27.274-.405.615-.405 1.026ZM275.726 372h-.879v-5.601c-.212.202-.49.404-.835.606-.342.202-.65.353-.923.454v-.85a5.338 5.338 0 0 0 1.289-.839c.368-.329.628-.648.781-.958h.567V372Zm2.387-1.655.845-.078c.072.397.208.685.41.864.202.179.461.268.777.268.27 0 .506-.061.708-.185.205-.124.372-.288.502-.493.131-.209.24-.489.328-.84a4.41 4.41 0 0 0 .127-1.25c-.176.28-.417.508-.723.683a1.955 1.955 0 0 1-.986.259 2 2 0 0 1-1.504-.644c-.41-.43-.616-.996-.616-1.7 0-.725.214-1.31.64-1.752.43-.443.967-.665 1.611-.665.466 0 .891.126 1.275.376.387.251.68.609.879 1.075.202.462.302 1.133.302 2.011 0 .915-.099 1.644-.297 2.188-.199.54-.495.952-.889 1.235-.391.283-.85.425-1.377.425-.56 0-1.017-.155-1.372-.464-.355-.312-.568-.75-.64-1.313Zm3.599-3.159c0-.505-.135-.905-.405-1.202a1.257 1.257 0 0 0-.967-.444c-.391 0-.731.16-1.021.479-.289.319-.434.732-.434 1.24 0 .456.136.827.41 1.113.277.283.617.425 1.02.425a1.3 1.3 0 0 0 1.001-.425c.264-.286.396-.682.396-1.186ZM262.034 411.155V412h-4.731a1.54 1.54 0 0 1 .102-.61c.121-.323.313-.64.576-.952.267-.313.651-.674 1.153-1.084.778-.639 1.304-1.143 1.577-1.514.273-.375.41-.728.41-1.06 0-.348-.125-.641-.376-.879-.247-.241-.571-.361-.972-.361-.423 0-.761.127-1.015.381-.254.254-.383.605-.386 1.055l-.903-.093c.062-.674.294-1.187.698-1.538.404-.355.946-.533 1.626-.533.687 0 1.23.191 1.631.572.4.381.6.853.6 1.416 0 .286-.058.568-.175.845-.118.276-.313.568-.586.874-.27.306-.721.725-1.353 1.259-.527.443-.866.744-1.015.904a2.83 2.83 0 0 0-.372.473h3.511Zm.947-2.685c0-.847.087-1.527.259-2.041.176-.518.435-.917.777-1.197.345-.28.778-.42 1.298-.42a2.1 2.1 0 0 1 1.011.235c.29.153.529.376.718.669.189.29.337.644.444 1.064.108.417.161.98.161 1.69 0 .84-.086 1.518-.258 2.036-.173.514-.432.913-.777 1.196-.342.28-.774.42-1.299.42-.69 0-1.232-.247-1.626-.742-.472-.596-.708-1.566-.708-2.91Zm.904 0c0 1.175.136 1.958.41 2.348.277.388.617.581 1.02.581.404 0 .743-.195 1.016-.586.277-.39.415-1.171.415-2.343 0-1.179-.138-1.962-.415-2.349-.273-.387-.615-.581-1.025-.581-.404 0-.726.171-.967.513-.303.436-.454 1.242-.454 2.417ZM239.034 440.155V441h-4.731a1.54 1.54 0 0 1 .102-.61c.121-.323.313-.64.576-.952.267-.313.651-.674 1.153-1.084.778-.639 1.304-1.143 1.577-1.514.273-.375.41-.728.41-1.06 0-.348-.125-.641-.376-.879-.247-.241-.571-.361-.972-.361-.423 0-.761.127-1.015.381-.254.254-.383.605-.386 1.055l-.903-.093c.062-.674.294-1.187.698-1.538.404-.355.946-.533 1.626-.533.687 0 1.23.191 1.631.572.4.381.6.853.6 1.416 0 .286-.058.568-.175.845-.118.276-.313.568-.586.874-.27.306-.721.725-1.353 1.259-.527.443-.866.744-1.015.904a2.83 2.83 0 0 0-.372.473h3.511Zm4.258.845h-.879v-5.601c-.212.202-.49.404-.835.606a5.795 5.795 0 0 1-.923.454v-.85a5.319 5.319 0 0 0 1.289-.839c.368-.329.629-.648.782-.958h.566V441ZM216.034 459.155V460h-4.731a1.54 1.54 0 0 1 .102-.61c.121-.323.313-.64.576-.952.267-.313.651-.674 1.153-1.084.778-.639 1.304-1.143 1.577-1.514.273-.375.41-.728.41-1.06 0-.348-.125-.641-.376-.879-.247-.241-.571-.361-.972-.361-.423 0-.761.127-1.015.381-.254.254-.383.605-.386 1.055l-.903-.093c.062-.674.294-1.187.698-1.538.404-.355.946-.533 1.626-.533.687 0 1.23.191 1.631.572.4.381.6.853.6 1.416 0 .286-.058.568-.175.845-.118.276-.313.568-.586.874-.27.306-.721.725-1.353 1.259-.527.443-.866.744-1.015.904a2.83 2.83 0 0 0-.372.473h3.511Zm5.567 0V460h-4.732a1.558 1.558 0 0 1 .103-.61c.12-.323.312-.64.576-.952.267-.313.651-.674 1.152-1.084.778-.639 1.304-1.143 1.577-1.514.274-.375.411-.728.411-1.06 0-.348-.126-.641-.376-.879-.248-.241-.572-.361-.972-.361-.423 0-.762.127-1.016.381s-.382.605-.386 1.055l-.903-.093c.062-.674.295-1.187.698-1.538.404-.355.946-.533 1.626-.533.687 0 1.231.191 1.631.572.401.381.601.853.601 1.416 0 .286-.059.568-.176.845-.117.276-.312.568-.586.874-.27.306-.721.725-1.352 1.259-.528.443-.866.744-1.016.904a2.82 2.82 0 0 0-.371.473h3.511ZM187.034 474.155V475h-4.731a1.54 1.54 0 0 1 .102-.61c.121-.323.313-.64.576-.952.267-.313.651-.674 1.153-1.084.778-.639 1.304-1.143 1.577-1.514.273-.375.41-.728.41-1.06 0-.348-.125-.641-.376-.879-.247-.241-.571-.361-.972-.361-.423 0-.761.127-1.015.381-.254.254-.383.605-.386 1.055l-.903-.093c.062-.674.294-1.187.698-1.538.404-.355.946-.533 1.626-.533.687 0 1.23.191 1.631.572.4.381.6.853.6 1.416 0 .286-.058.568-.175.845-.118.276-.313.568-.586.874-.27.306-.721.725-1.353 1.259-.527.443-.866.744-1.015.904a2.83 2.83 0 0 0-.372.473h3.511Zm.952-1.045.879-.117c.101.498.272.858.513 1.079.244.218.54.327.889.327.413 0 .761-.143 1.045-.429a1.45 1.45 0 0 0 .429-1.065c0-.403-.132-.735-.395-.996-.264-.263-.599-.395-1.006-.395a2.52 2.52 0 0 0-.62.097l.097-.771c.059.006.106.01.142.01.374 0 .711-.098 1.011-.293.299-.196.449-.497.449-.904 0-.322-.109-.589-.327-.8-.218-.212-.5-.318-.845-.318-.342 0-.627.108-.854.322-.228.215-.375.538-.44.967l-.879-.156c.108-.589.352-1.045.733-1.367.381-.326.854-.489 1.421-.489.39 0 .75.085 1.079.254.328.166.579.394.752.684.175.29.263.597.263.923 0 .309-.083.591-.249.845-.166.253-.412.455-.737.605.423.098.752.301.986.61.235.306.352.691.352 1.153 0 .625-.228 1.155-.684 1.592-.455.432-1.032.649-1.728.649-.629 0-1.151-.187-1.568-.562-.413-.374-.649-.859-.708-1.455ZM158.034 478.155V479h-4.731a1.54 1.54 0 0 1 .102-.61c.121-.323.313-.64.576-.952.267-.313.651-.674 1.153-1.084.778-.639 1.304-1.143 1.577-1.514.273-.375.41-.728.41-1.06 0-.348-.125-.641-.376-.879-.247-.241-.571-.361-.972-.361-.423 0-.761.127-1.015.381-.254.254-.383.605-.386 1.055l-.903-.093c.062-.674.294-1.187.698-1.538.404-.355.946-.533 1.626-.533.687 0 1.23.191 1.631.572.4.381.6.853.6 1.416 0 .286-.058.568-.175.845-.118.276-.313.568-.586.874-.27.306-.721.725-1.353 1.259-.527.443-.866.744-1.015.904a2.83 2.83 0 0 0-.372.473h3.511Zm3.765.845v-1.714h-3.106v-.806l3.267-4.638h.718v4.638h.967v.806h-.967V479h-.879Zm0-2.52v-3.227l-2.241 3.227h2.241ZM138.034 478.155V479h-4.731a1.54 1.54 0 0 1 .102-.61c.121-.323.313-.64.576-.952.267-.313.651-.674 1.153-1.084.778-.639 1.304-1.143 1.577-1.514.273-.375.41-.728.41-1.06 0-.348-.125-.641-.376-.879-.247-.241-.571-.361-.972-.361-.423 0-.761.127-1.015.381-.254.254-.383.605-.386 1.055l-.903-.093c.062-.674.294-1.187.698-1.538.404-.355.946-.533 1.626-.533.687 0 1.23.191 1.631.572.4.381.6.853.6 1.416 0 .286-.058.568-.175.845-.118.276-.313.568-.586.874-.27.306-.721.725-1.353 1.259-.527.443-.866.744-1.015.904a2.83 2.83 0 0 0-.372.473h3.511Zm.947-1.03.923-.078c.069.449.227.788.474 1.015.251.225.552.337.903.337.423 0 .781-.159 1.074-.478.293-.319.44-.742.44-1.27 0-.501-.142-.896-.425-1.186-.28-.29-.648-.435-1.103-.435a1.51 1.51 0 0 0-.767.196 1.467 1.467 0 0 0-.537.498l-.825-.108.693-3.677h3.56v.84h-2.857l-.386 1.924c.43-.299.881-.449 1.353-.449.625 0 1.152.216 1.582.649.43.433.645.99.645 1.67 0 .648-.189 1.208-.567 1.68-.459.579-1.085.869-1.88.869-.651 0-1.183-.182-1.596-.547-.411-.364-.645-.848-.704-1.45ZM110.034 471.155V472h-4.731a1.54 1.54 0 0 1 .102-.61c.121-.323.313-.64.576-.952.267-.313.651-.674 1.153-1.084.778-.639 1.304-1.143 1.577-1.514.273-.375.41-.728.41-1.06 0-.348-.125-.641-.376-.879-.247-.241-.571-.361-.972-.361-.423 0-.761.127-1.015.381-.254.254-.383.605-.386 1.055l-.903-.093c.062-.674.294-1.187.698-1.538.404-.355.946-.533 1.626-.533.687 0 1.23.191 1.631.572.4.381.6.853.6 1.416 0 .286-.058.568-.175.845-.118.276-.313.568-.586.874-.27.306-.721.725-1.353 1.259-.527.443-.866.744-1.015.904a2.83 2.83 0 0 0-.372.473h3.511Zm5.508-4.56-.874.068c-.078-.345-.189-.596-.332-.752a1.163 1.163 0 0 0-.879-.376c-.28 0-.526.078-.737.235-.277.201-.495.496-.655.883-.159.388-.242.939-.249 1.656.212-.323.471-.562.777-.718a2.09 2.09 0 0 1 .962-.235c.586 0 1.084.217 1.494.65.413.43.62.986.62 1.67 0 .449-.098.867-.293 1.255a2.099 2.099 0 0 1-.796.883 2.17 2.17 0 0 1-1.152.308c-.733 0-1.33-.268-1.792-.806-.462-.54-.694-1.429-.694-2.666 0-1.383.256-2.389.767-3.017.446-.547 1.047-.821 1.802-.821.563 0 1.024.158 1.382.474.361.316.577.752.649 1.309Zm-3.589 3.086c0 .302.064.592.191.869.13.276.31.488.542.635.231.143.473.214.727.214.371 0 .69-.149.957-.449.267-.299.401-.706.401-1.221 0-.494-.132-.883-.396-1.167a1.298 1.298 0 0 0-.996-.429c-.397 0-.734.143-1.011.429-.277.284-.415.656-.415 1.119ZM86.034 459.155V460h-4.731a1.55 1.55 0 0 1 .102-.61c.12-.323.313-.64.576-.952.267-.313.651-.674 1.153-1.084.778-.639 1.303-1.143 1.577-1.514.273-.375.41-.728.41-1.06 0-.348-.125-.641-.376-.879-.247-.241-.571-.361-.972-.361-.423 0-.761.127-1.015.381-.254.254-.383.605-.386 1.055l-.903-.093c.062-.674.294-1.187.698-1.538.404-.355.946-.533 1.626-.533.687 0 1.23.191 1.63.572.401.381.601.853.601 1.416 0 .286-.058.568-.175.845-.118.276-.313.568-.586.874-.27.306-.721.725-1.353 1.259-.527.443-.866.744-1.016.904-.15.156-.273.314-.37.473h3.51Zm1.006-5.376v-.844h4.634v.683c-.456.485-.908 1.13-1.358 1.934a11.863 11.863 0 0 0-1.035 2.48 9.23 9.23 0 0 0-.337 1.968h-.903c.01-.563.12-1.243.332-2.041a10.74 10.74 0 0 1 .908-2.305c.397-.742.819-1.367 1.265-1.875H87.04ZM61.034 440.155V441h-4.731a1.55 1.55 0 0 1 .102-.61c.12-.323.313-.64.576-.952.267-.313.651-.674 1.153-1.084.778-.639 1.303-1.143 1.577-1.514.273-.375.41-.728.41-1.06 0-.348-.125-.641-.376-.879-.247-.241-.571-.361-.972-.361-.423 0-.761.127-1.015.381-.254.254-.383.605-.386 1.055l-.903-.093c.062-.674.294-1.187.698-1.538.404-.355.946-.533 1.626-.533.687 0 1.23.191 1.63.572.401.381.601.853.601 1.416 0 .286-.058.568-.175.845-.118.276-.313.568-.586.874-.27.306-.721.725-1.353 1.259-.527.443-.866.744-1.015.904-.15.156-.274.314-.372.473h3.511Zm2.3-3.037c-.365-.133-.635-.324-.81-.571a1.497 1.497 0 0 1-.264-.889c0-.521.187-.958.561-1.313.375-.355.873-.533 1.494-.533.625 0 1.128.183 1.51.547.38.362.57.803.57 1.324 0 .332-.087.621-.263.869-.173.244-.436.433-.791.566.44.143.773.375 1 .694.232.319.348.699.348 1.142 0 .612-.217 1.126-.65 1.543-.433.417-1.002.625-1.709.625-.706 0-1.276-.208-1.709-.625-.433-.42-.65-.942-.65-1.567 0-.466.118-.855.352-1.167.238-.316.575-.531 1.011-.645Zm-.176-1.489c0 .338.11.615.327.83.218.215.502.322.85.322.339 0 .615-.106.83-.317.218-.215.327-.477.327-.786 0-.323-.112-.593-.337-.811a1.128 1.128 0 0 0-.83-.332c-.335 0-.613.108-.835.322a1.038 1.038 0 0 0-.332.772Zm-.283 3.306c0 .25.059.493.176.727.12.234.298.417.532.547.234.127.487.19.757.19.42 0 .766-.135 1.04-.405.273-.27.41-.613.41-1.03 0-.423-.142-.773-.425-1.05-.28-.277-.631-.415-1.054-.415-.414 0-.757.137-1.03.41a1.4 1.4 0 0 0-.406 1.026ZM41.034 411.155V412h-4.731a1.55 1.55 0 0 1 .102-.61c.12-.323.313-.64.576-.952.267-.313.651-.674 1.153-1.084.778-.639 1.303-1.143 1.577-1.514.273-.375.41-.728.41-1.06 0-.348-.125-.641-.376-.879-.247-.241-.571-.361-.972-.361-.423 0-.761.127-1.015.381-.254.254-.383.605-.386 1.055l-.903-.093c.062-.674.294-1.187.698-1.538.404-.355.946-.533 1.626-.533.687 0 1.23.191 1.63.572.401.381.601.853.601 1.416 0 .286-.058.568-.175.845-.118.276-.313.568-.586.874-.27.306-.721.725-1.353 1.259-.527.443-.866.744-1.015.904-.15.156-.274.314-.372.473h3.511Zm1.08-.81.844-.078c.072.397.208.685.41.864.202.179.46.268.776.268.27 0 .507-.061.709-.185a1.52 1.52 0 0 0 .502-.493c.13-.209.24-.489.328-.84a4.416 4.416 0 0 0 .127-1.25 2.02 2.02 0 0 1-.723.683 1.954 1.954 0 0 1-.986.259 2.001 2.001 0 0 1-1.504-.644c-.41-.43-.616-.996-.616-1.7 0-.725.214-1.31.64-1.752.43-.443.967-.665 1.611-.665.466 0 .89.126 1.275.376.387.251.68.609.879 1.075.202.462.302 1.133.302 2.011 0 .915-.099 1.644-.297 2.188-.199.54-.495.952-.889 1.235-.39.283-.85.425-1.377.425-.56 0-1.017-.155-1.372-.464-.355-.312-.568-.75-.64-1.313Zm3.598-3.159c0-.505-.135-.905-.405-1.202a1.256 1.256 0 0 0-.967-.444c-.39 0-.731.16-1.02.479-.29.319-.435.732-.435 1.24 0 .456.137.827.41 1.113.277.283.617.425 1.02.425a1.3 1.3 0 0 0 1.001-.425c.264-.286.396-.682.396-1.186ZM21.42 370.11l.879-.117c.1.498.272.858.512 1.079.245.218.54.327.89.327.413 0 .76-.143 1.044-.429.287-.287.43-.642.43-1.065 0-.403-.132-.735-.396-.996-.263-.263-.599-.395-1.006-.395-.166 0-.372.032-.62.097l.098-.771c.059.006.106.01.142.01.374 0 .71-.098 1.01-.293.3-.196.45-.497.45-.904 0-.322-.11-.589-.328-.8-.218-.212-.5-.318-.844-.318a1.2 1.2 0 0 0-.855.322c-.228.215-.374.538-.44.967l-.878-.156c.107-.589.351-1.045.732-1.367.381-.326.855-.489 1.421-.489.39 0 .75.085 1.08.254.328.166.579.394.751.684.176.29.264.597.264.923 0 .309-.083.591-.25.845-.165.253-.41.455-.736.605.423.098.752.301.986.61.234.306.351.691.351 1.153 0 .625-.227 1.155-.683 1.592-.456.432-1.032.649-1.729.649-.628 0-1.15-.187-1.567-.562-.413-.374-.65-.859-.708-1.455Zm5.561-1.64c0-.847.087-1.527.26-2.041.175-.518.434-.917.776-1.197.345-.28.778-.42 1.298-.42a2.1 2.1 0 0 1 1.011.235c.29.153.53.376.718.669.189.29.337.644.444 1.064.108.417.161.98.161 1.69 0 .84-.086 1.518-.258 2.036-.173.514-.432.913-.777 1.196-.341.28-.774.42-1.299.42-.69 0-1.232-.247-1.626-.742-.472-.596-.708-1.566-.708-2.91Zm.904 0c0 1.175.136 1.958.41 2.348.277.388.617.581 1.02.581.404 0 .743-.195 1.016-.586.277-.39.415-1.171.415-2.343 0-1.179-.138-1.962-.415-2.349-.273-.387-.615-.581-1.025-.581-.404 0-.726.171-.967.513-.303.436-.454 1.242-.454 2.417ZM7.42 327.11l.879-.117c.1.498.272.858.513 1.079.244.218.54.327.888.327.414 0 .762-.143 1.045-.429.287-.287.43-.642.43-1.065 0-.403-.132-.735-.396-.996-.263-.263-.599-.395-1.006-.395-.166 0-.372.032-.62.097l.098-.771c.059.006.106.01.142.01.374 0 .71-.098 1.01-.293.3-.196.45-.497.45-.904 0-.322-.11-.589-.328-.8-.218-.212-.5-.318-.844-.318a1.2 1.2 0 0 0-.855.322c-.228.215-.374.538-.44.967l-.878-.156c.107-.589.351-1.045.732-1.367.381-.326.855-.489 1.421-.489.39 0 .75.085 1.08.254.328.166.579.394.751.684.176.29.264.597.264.923 0 .309-.083.591-.25.845-.165.253-.41.455-.736.605.423.098.752.301.986.61.234.306.351.691.351 1.153 0 .625-.227 1.155-.683 1.592-.456.432-1.032.649-1.729.649-.628 0-1.15-.187-1.567-.562-.413-.374-.65-.859-.708-1.455Zm8.872 1.89h-.879v-5.601c-.212.202-.49.404-.835.606a5.81 5.81 0 0 1-.923.454v-.85a5.324 5.324 0 0 0 1.29-.839c.367-.329.628-.648.78-.958h.567V329ZM.42 288.11l.879-.117c.1.498.272.858.513 1.079.244.218.54.327.888.327.414 0 .762-.143 1.045-.429.287-.287.43-.642.43-1.065 0-.403-.132-.735-.396-.996-.263-.263-.599-.395-1.006-.395-.166 0-.372.032-.62.097l.098-.771c.059.006.106.01.142.01.374 0 .71-.098 1.01-.293.3-.196.45-.497.45-.904 0-.322-.11-.589-.328-.8-.218-.212-.5-.318-.844-.318a1.2 1.2 0 0 0-.855.322c-.228.215-.374.538-.44.967l-.878-.156c.107-.589.351-1.045.732-1.367.381-.326.855-.489 1.421-.489.39 0 .75.085 1.08.254.328.166.579.394.751.684.176.29.264.597.264.923 0 .309-.083.591-.25.845-.165.253-.411.455-.736.605.423.098.751.301.986.61.234.306.351.691.351 1.153 0 .625-.227 1.155-.683 1.592-.456.432-1.032.649-1.729.649-.628 0-1.15-.187-1.567-.562-.413-.374-.65-.859-.708-1.455Zm10.18 1.045V290H5.87a1.55 1.55 0 0 1 .102-.61c.12-.323.312-.64.576-.952.267-.313.65-.674 1.152-1.084.778-.639 1.304-1.143 1.577-1.514.274-.375.41-.728.41-1.06 0-.348-.125-.641-.375-.879-.248-.241-.572-.361-.972-.361-.423 0-.762.127-1.016.381s-.382.605-.386 1.055l-.903-.093c.062-.674.295-1.187.698-1.538.404-.355.946-.533 1.626-.533.687 0 1.23.191 1.631.572.4.381.6.853.6 1.416 0 .286-.058.568-.175.845-.117.276-.313.568-.586.874-.27.306-.72.725-1.352 1.259-.528.443-.866.744-1.016.904-.15.156-.274.314-.371.473h3.51Z" fill="#fff"/><path clip-rule="evenodd" d="M32.373 150.54c-10.444 2.081-13.67 14.698-9.78 25.801 4.593 13.108 19.53 12 26.244 9.225 16.49-6.816 14.224-27.656-.783-33.031-4.573-1.637-10.849-2.958-15.681-1.995Z" stroke="#fff" stroke-width=".756" stroke-miterlimit="22.926"/><path clip-rule="evenodd" d="M32.51 223.542c2.5 3.147 7.521 3.806 12.074 3.572 6.137-.315 7.117-2.078 11.283-3.532.57-1.876-2.058-1.524 1.822-1.468 4.693-6.001 6.673-8.735 5.058-18.105-1.267-7.35-4.8-11.466-11.28-13.69-2.764-2.189-11.357-3.201-15.258-2.651-5.378.758-8.587 3.191-10.407 7.841-3.127 7.993-1.184 26.418 6.709 28.033ZM267.001 188.642c-4.75-3.943-16.914.664-20.829 3.138-5.544 3.503-8.818 9.797-8.419 17.829.951 19.176 27.318 21.34 31.274 13.388 2.335-.585 2.103-.689 3.57-2.57 1.135-1.455 1.498-2.133 2.233-3.799 1.477-3.351 1.967-7.409 1.95-11.519-.03-7.454-2.22-16.27-9.779-16.468v.001ZM136.497 19.598c-8.135 1.66-14.625 3.934-11.767 14.838 1.667 6.362 5.687 13.193 14.275 13.062 8.989-.138 10.306-8.645 10.538-16.685.277-9.668-4.04-13.052-13.046-11.215ZM196.947 49.065c3.54-.705 10.658-11.384-.72-17.904-10.837-6.21-15.157-4.008-18.883 5.038-1.172 6.563-3.5 13.949 3.339 17.462 6.681 3.432 13.275.477 16.264-4.596Z" stroke="#fff" stroke-width=".756" stroke-miterlimit="22.926"/><path d="M112.544 148.084c-1.251 0-2.235-.359-2.954-1.078-.719-.719-1.078-1.783-1.078-3.192V138.2h1.036v5.572c0 1.157.261 2.011.784 2.562.523.551 1.26.826 2.212.826.961 0 1.703-.275 2.226-.826.523-.551.784-1.405.784-2.562V138.2h1.008v5.614c0 1.409-.359 2.473-1.078 3.192-.709.719-1.689 1.078-2.94 1.078Zm10.724-.014a3.447 3.447 0 0 1-1.722-.434 3.306 3.306 0 0 1-1.232-1.274c-.299-.56-.448-1.241-.448-2.044 0-.803.149-1.479.448-2.03.299-.56.705-.985 1.218-1.274a3.476 3.476 0 0 1 1.736-.434c.7 0 1.325.159 1.876.476.56.308.999.747 1.316 1.316.317.56.476 1.209.476 1.946 0 .747-.159 1.4-.476 1.96-.317.56-.756.999-1.316 1.316-.551.317-1.176.476-1.876.476Zm-3.794 2.646V140.65h.952v2.212l-.098 1.47.14 1.484v4.9h-.994Zm3.724-3.528c.523 0 .989-.117 1.4-.35a2.68 2.68 0 0 0 .98-1.008c.243-.439.364-.943.364-1.512 0-.569-.121-1.069-.364-1.498a2.68 2.68 0 0 0-.98-1.008 2.696 2.696 0 0 0-1.4-.364 2.77 2.77 0 0 0-1.414.364 2.68 2.68 0 0 0-.98 1.008c-.233.429-.35.929-.35 1.498s.117 1.073.35 1.512c.243.429.569.765.98 1.008.42.233.891.35 1.414.35Zm9.558.882a3.453 3.453 0 0 1-1.722-.434 3.306 3.306 0 0 1-1.232-1.274c-.298-.56-.448-1.241-.448-2.044 0-.803.15-1.479.448-2.03.299-.56.705-.985 1.218-1.274a3.479 3.479 0 0 1 1.736-.434c.7 0 1.326.159 1.876.476.56.308.999.747 1.316 1.316.318.56.476 1.209.476 1.946 0 .747-.158 1.4-.476 1.96-.317.56-.756.999-1.316 1.316-.55.317-1.176.476-1.876.476Zm-3.794 2.646V140.65h.952v2.212l-.098 1.47.14 1.484v4.9h-.994Zm3.724-3.528c.523 0 .99-.117 1.4-.35.411-.243.738-.579.98-1.008.243-.439.364-.943.364-1.512 0-.569-.121-1.069-.364-1.498a2.673 2.673 0 0 0-.98-1.008 2.694 2.694 0 0 0-1.4-.364c-.522 0-.994.121-1.414.364-.41.243-.737.579-.98 1.008-.233.429-.35.929-.35 1.498s.117 1.073.35 1.512c.243.429.57.765.98 1.008.42.233.892.35 1.414.35Zm8.886.882c-.765 0-1.437-.159-2.016-.476a3.585 3.585 0 0 1-1.358-1.33c-.326-.569-.49-1.218-.49-1.946s.154-1.372.462-1.932c.318-.56.747-.999 1.288-1.316a3.552 3.552 0 0 1 1.848-.49c.691 0 1.302.159 1.834.476.542.308.966.747 1.274 1.316.308.56.462 1.209.462 1.946a.871.871 0 0 1-.014.154v.154h-6.398v-.742h5.866l-.392.294c0-.532-.116-1.003-.35-1.414a2.46 2.46 0 0 0-.924-.98c-.392-.233-.844-.35-1.358-.35-.504 0-.956.117-1.358.35-.401.233-.714.56-.938.98-.224.42-.336.901-.336 1.442v.154c0 .56.122 1.055.364 1.484.252.42.598.751 1.036.994.448.233.957.35 1.526.35.448 0 .864-.079 1.246-.238a2.592 2.592 0 0 0 1.008-.728l.56.644a3.133 3.133 0 0 1-1.232.896 4.096 4.096 0 0 1-1.61.308Zm5.328-.07v-7.35h.952v2.002l-.098-.35c.205-.56.55-.985 1.036-1.274.485-.299 1.087-.448 1.806-.448v.966h-.112a.484.484 0 0 0-.112-.014c-.775 0-1.382.238-1.82.714-.439.467-.658 1.134-.658 2.002V148h-.994Zm11.607.07c-.691 0-1.223-.187-1.596-.56-.373-.373-.56-.901-.56-1.582v-6.902h.994v6.846c0 .429.107.761.322.994.224.233.541.35.952.35.439 0 .803-.126 1.092-.378l.35.714a1.835 1.835 0 0 1-.714.392 2.82 2.82 0 0 1-.84.126Zm-3.472-6.594v-.826h4.55v.826h-4.55Zm9.698 6.594c-.766 0-1.438-.159-2.016-.476a3.57 3.57 0 0 1-1.358-1.33c-.327-.569-.49-1.218-.49-1.946s.154-1.372.462-1.932c.317-.56.746-.999 1.288-1.316a3.547 3.547 0 0 1 1.848-.49c.69 0 1.302.159 1.834.476a3.27 3.27 0 0 1 1.274 1.316c.308.56.462 1.209.462 1.946a.978.978 0 0 1-.014.154v.154h-6.398v-.742h5.866l-.392.294c0-.532-.117-1.003-.35-1.414a2.46 2.46 0 0 0-.924-.98c-.392-.233-.845-.35-1.358-.35-.504 0-.957.117-1.358.35-.402.233-.714.56-.938.98-.224.42-.336.901-.336 1.442v.154c0 .56.121 1.055.364 1.484.252.42.597.751 1.036.994.448.233.956.35 1.526.35.448 0 .863-.079 1.246-.238a2.592 2.592 0 0 0 1.008-.728l.56.644a3.147 3.147 0 0 1-1.232.896 4.1 4.1 0 0 1-1.61.308Zm8.449 0c-.766 0-1.438-.159-2.016-.476a3.57 3.57 0 0 1-1.358-1.33c-.327-.569-.49-1.218-.49-1.946s.154-1.372.462-1.932c.317-.56.746-.999 1.288-1.316a3.547 3.547 0 0 1 1.848-.49c.69 0 1.302.159 1.834.476a3.27 3.27 0 0 1 1.274 1.316c.308.56.462 1.209.462 1.946a.978.978 0 0 1-.014.154v.154h-6.398v-.742h5.866l-.392.294c0-.532-.117-1.003-.35-1.414a2.46 2.46 0 0 0-.924-.98c-.392-.233-.845-.35-1.358-.35-.504 0-.957.117-1.358.35-.402.233-.714.56-.938.98-.224.42-.336.901-.336 1.442v.154c0 .56.121 1.055.364 1.484.252.42.597.751 1.036.994.448.233.956.35 1.526.35.448 0 .863-.079 1.246-.238a2.592 2.592 0 0 0 1.008-.728l.56.644a3.147 3.147 0 0 1-1.232.896 4.1 4.1 0 0 1-1.61.308Zm7.651 0c-.691 0-1.223-.187-1.596-.56-.373-.373-.56-.901-.56-1.582v-6.902h.994v6.846c0 .429.107.761.322.994.224.233.541.35.952.35.439 0 .803-.126 1.092-.378l.35.714a1.835 1.835 0 0 1-.714.392 2.82 2.82 0 0 1-.84.126Zm-3.472-6.594v-.826h4.55v.826h-4.55Zm10.588-.896c.597 0 1.12.117 1.568.35.457.224.812.569 1.064 1.036.261.467.392 1.055.392 1.764V148h-.994v-4.172c0-.775-.196-1.358-.588-1.75-.383-.401-.924-.602-1.624-.602-.523 0-.98.107-1.372.322a2.156 2.156 0 0 0-.896.91c-.206.392-.308.868-.308 1.428V148h-.994v-10.388h.994v5.054l-.196-.378a2.633 2.633 0 0 1 1.12-1.246c.513-.308 1.124-.462 1.834-.462ZM109.596 335v-9.8h1.036v8.904h5.488V335h-6.524Zm10.921.07c-.71 0-1.349-.159-1.918-.476a3.633 3.633 0 0 1-1.33-1.33c-.327-.569-.49-1.218-.49-1.946 0-.737.163-1.386.49-1.946.326-.56.77-.999 1.33-1.316.56-.317 1.199-.476 1.918-.476.728 0 1.372.159 1.932.476a3.406 3.406 0 0 1 1.33 1.316c.326.56.49 1.209.49 1.946 0 .728-.164 1.377-.49 1.946a3.51 3.51 0 0 1-1.33 1.33c-.57.317-1.214.476-1.932.476Zm0-.882c.532 0 1.003-.117 1.414-.35.41-.243.732-.579.966-1.008.242-.439.364-.943.364-1.512 0-.579-.122-1.083-.364-1.512a2.486 2.486 0 0 0-.966-.994 2.699 2.699 0 0 0-1.4-.364c-.523 0-.99.121-1.4.364a2.566 2.566 0 0 0-.98.994c-.243.429-.364.933-.364 1.512 0 .569.121 1.073.364 1.512.242.429.569.765.98 1.008.41.233.872.35 1.386.35Zm7.074.812-2.772-7.35h.952l2.52 6.818h-.434l2.59-6.818h.854l2.562 6.818h-.434l2.562-6.818h.91l-2.786 7.35h-.938l-2.464-6.412h.294L128.529 335h-.938Zm13.724.07c-.766 0-1.438-.159-2.016-.476a3.57 3.57 0 0 1-1.358-1.33c-.327-.569-.49-1.218-.49-1.946s.154-1.372.462-1.932c.317-.56.746-.999 1.288-1.316a3.547 3.547 0 0 1 1.848-.49c.69 0 1.302.159 1.834.476a3.27 3.27 0 0 1 1.274 1.316c.308.56.462 1.209.462 1.946a.978.978 0 0 1-.014.154v.154h-6.398v-.742h5.866l-.392.294c0-.532-.117-1.003-.35-1.414a2.46 2.46 0 0 0-.924-.98c-.392-.233-.845-.35-1.358-.35-.504 0-.957.117-1.358.35-.402.233-.714.56-.938.98-.224.42-.336.901-.336 1.442v.154c0 .56.121 1.055.364 1.484.252.42.597.751 1.036.994.448.233.956.35 1.526.35.448 0 .863-.079 1.246-.238a2.592 2.592 0 0 0 1.008-.728l.56.644a3.147 3.147 0 0 1-1.232.896 4.1 4.1 0 0 1-1.61.308Zm5.327-.07v-7.35h.952v2.002l-.098-.35c.205-.56.551-.985 1.036-1.274.485-.299 1.087-.448 1.806-.448v.966h-.112a.477.477 0 0 0-.112-.014c-.775 0-1.381.238-1.82.714-.439.467-.658 1.134-.658 2.002V335h-.994Zm11.607.07c-.691 0-1.223-.187-1.596-.56-.373-.373-.56-.901-.56-1.582v-6.902h.994v6.846c0 .429.107.761.322.994.224.233.541.35.952.35.439 0 .803-.126 1.092-.378l.35.714a1.835 1.835 0 0 1-.714.392 2.82 2.82 0 0 1-.84.126Zm-3.472-6.594v-.826h4.55v.826h-4.55Zm9.698 6.594c-.766 0-1.438-.159-2.016-.476a3.57 3.57 0 0 1-1.358-1.33c-.327-.569-.49-1.218-.49-1.946s.154-1.372.462-1.932c.317-.56.746-.999 1.288-1.316a3.547 3.547 0 0 1 1.848-.49c.69 0 1.302.159 1.834.476a3.27 3.27 0 0 1 1.274 1.316c.308.56.462 1.209.462 1.946a.978.978 0 0 1-.014.154v.154h-6.398v-.742h5.866l-.392.294c0-.532-.117-1.003-.35-1.414a2.46 2.46 0 0 0-.924-.98c-.392-.233-.845-.35-1.358-.35-.504 0-.957.117-1.358.35-.402.233-.714.56-.938.98-.224.42-.336.901-.336 1.442v.154c0 .56.121 1.055.364 1.484.252.42.597.751 1.036.994.448.233.956.35 1.526.35.448 0 .863-.079 1.246-.238a2.592 2.592 0 0 0 1.008-.728l.56.644a3.147 3.147 0 0 1-1.232.896 4.1 4.1 0 0 1-1.61.308Zm8.449 0c-.765 0-1.437-.159-2.016-.476a3.578 3.578 0 0 1-1.358-1.33c-.327-.569-.49-1.218-.49-1.946s.154-1.372.462-1.932c.317-.56.747-.999 1.288-1.316a3.552 3.552 0 0 1 1.848-.49c.691 0 1.302.159 1.834.476a3.27 3.27 0 0 1 1.274 1.316c.308.56.462 1.209.462 1.946a.978.978 0 0 1-.014.154v.154h-6.398v-.742h5.866l-.392.294c0-.532-.117-1.003-.35-1.414a2.46 2.46 0 0 0-.924-.98c-.392-.233-.845-.35-1.358-.35-.504 0-.957.117-1.358.35-.401.233-.714.56-.938.98-.224.42-.336.901-.336 1.442v.154c0 .56.121 1.055.364 1.484.252.42.597.751 1.036.994.448.233.957.35 1.526.35.448 0 .863-.079 1.246-.238a2.592 2.592 0 0 0 1.008-.728l.56.644a3.14 3.14 0 0 1-1.232.896 4.096 4.096 0 0 1-1.61.308Zm7.651 0c-.69 0-1.222-.187-1.596-.56-.373-.373-.56-.901-.56-1.582v-6.902h.994v6.846c0 .429.108.761.322.994.224.233.542.35.952.35.439 0 .803-.126 1.092-.378l.35.714a1.835 1.835 0 0 1-.714.392c-.27.084-.55.126-.84.126Zm-3.472-6.594v-.826h4.55v.826h-4.55Zm10.588-.896c.597 0 1.12.117 1.568.35.457.224.812.569 1.064 1.036.261.467.392 1.055.392 1.764V335h-.994v-4.172c0-.775-.196-1.358-.588-1.75-.383-.401-.924-.602-1.624-.602-.523 0-.98.107-1.372.322a2.156 2.156 0 0 0-.896.91c-.206.392-.308.868-.308 1.428V335h-.994v-10.388h.994v5.054l-.196-.378a2.633 2.633 0 0 1 1.12-1.246c.513-.308 1.124-.462 1.834-.462Z" fill="#fff"/></svg>