<svg width="306" height="481" viewBox="0 0 306 481" fill="none" xmlns="http://www.w3.org/2000/svg"><path d="M108.596 148v-9.8h.854l4.48 7.644h-.448l4.438-7.644h.854v9.8h-.994v-8.246h.238l-4.088 7h-.49l-4.116-7h.266V148h-.994Zm11.803 0 4.48-9.8h1.022l4.48 9.8h-1.092l-4.116-9.198h.42L121.477 148h-1.078Zm1.764-2.618.308-.84h5.698l.308.84h-6.314Zm8.03 2.618 4.018-5.432v.798l-3.78-5.166h1.19l3.178 4.312-.462.014 3.178-4.326h1.12l-3.738 5.096v-.728l4.004 5.432h-1.204l-3.388-4.606h.434l-3.36 4.606h-1.19Zm10.204 0v-9.8h1.036v9.8h-1.036Zm4.224 0v-9.8h1.036v8.904h5.488V148h-6.524Zm8.245 0v-9.8h1.036v8.904h5.488V148h-6.524Zm6.676 0 4.48-9.8h1.022l4.48 9.8h-1.092l-4.116-9.198h.42L160.62 148h-1.078Zm1.764-2.618.308-.84h5.698l.308.84h-6.314Zm9.839 2.618v-9.8h3.668c.83 0 1.544.135 2.142.406.597.261 1.054.644 1.372 1.148.326.495.49 1.097.49 1.806 0 .691-.164 1.288-.49 1.792-.318.495-.775.877-1.372 1.148-.598.261-1.312.392-2.142.392h-3.094l.462-.476V148h-1.036Zm6.692 0-2.52-3.556h1.12l2.534 3.556h-1.134Zm-5.656-3.5-.462-.49h3.066c.98 0 1.722-.215 2.226-.644.513-.429.77-1.031.77-1.806 0-.784-.257-1.391-.77-1.82-.504-.429-1.246-.644-2.226-.644h-3.066l.462-.49v5.894Zm11.282 3.5v-3.64l.238.644-4.158-6.804h1.106l3.654 5.978h-.588l3.654-5.978h1.036l-4.158 6.804.238-.644V148h-1.022Z" fill="#fff"/><path clip-rule="evenodd" d="m248.179 113.902-1.647 1.063c-4.066 2.937-8.479 4.49-12.267 10.398-3.816 5.952-1.473 14.309 1.73 18.861 3.529 5.013 9.662 7.791 17.253 6.488 8.321-1.43 10.111-4.157 14.252-8.564 3.584-11.013 2.096-26.106-9.562-27.479-2.289-1.444-2.338-.803-5.286-.733-1.325.031-1.91.155-3.106-.16-.802-.111-1.066-.041-1.367.126ZM248.031 113.208c-.097-.208-.208-.003-.629-.632 2.643-.286 1.382.565 3.927-1.631.784-.676 1.865-1.97 2.457-2.985 1.533-2.626 1.206-5.663 1.497-8.86-2.135-2.148-3.585-6.66-5.872-9.028-3.081-3.19-6.563-3.514-11.103-2.563l-4.872 2.161c-3.418 3.119-11.924 7.405-5.942 18.422 4.731 8.714 12.442 5.25 20.538 5.115l-.001.001ZM255.439 306.806c.05.127-.007.043-.046.72l-11.208 1.085c-8.848 4.28-7.359 9.503-9.54 20.12-.581 7.566-1.683 10.307 5.847 13.555 5.146 2.22 12.849 3.537 18.776 1.698 12.305-3.819 14.058-16.768 12.442-28.342-.995-4.249-3.252-7.26-7.34-8.511l-2.364-.639c-.183-.067-6.403.38-6.566.313l-.001.001ZM257.268 306.243l3.069-.549c7.872-1.908 13.93-4.497 15.815-12.437 1.843-7.762.455-20.961-4.543-24.264-2.736-6.808-27.344-5.729-31.837 12.306-.931 3.74-2.808 12.809.075 15.842-.068 3.91 3.649 6.388 7.039 6.589.265 2.085 1.274 1.662 3.752 2.077.702.117 2.299.245 2.801.383 1.451.399 3.732-.193 3.829.053ZM50.825 347.919c-4.002.117-7.52 5.695-8.069 9.975-.781 6.098.881 10.776 3.63 14.286 6.634 8.472 16.447 8.062 27.399 8.054 2.782-3.11 6.439-3.425 7.697-10.166 1.021-5.466-.006-11.046-2.493-15.179-6.187-10.279-12.6-10.094-25.88-8.926-.35 2.141 1.15-.435-.785 1.498-.986.986-.5.211-1.5.458ZM39.334 304.808c4.608-.559 8.18.313 13.73-.646 2.725.413 6.85-2.716 8.079-4.851 2.014-3.506 1.362-9.527 1.059-13.857-4.07-24.771-28.757-21.057-32.824-17.214-8.16 7.712-7.572 37.819 9.956 36.568ZM228.079 380.269c11.943-.226 21.267.594 28.041-8.859 6.665-9.299 3.542-20.622-6.055-24.503-4.223-1.723-7.864-1.501-13.007-1.295-8.644.795-13.623 6.278-15.843 13.122-1.33 4.097-1.596 9.206-.323 13.216 1.68 5.292 5.282 5.232 7.187 8.319ZM39.174 147.876c.589 2.461 10.897 3.505 14.544 2.914 5.1-.826 8.766-3.952 11.242-8.266 5.959-10.385 1.124-20.239-7.586-24.936-7.856-5.931-20.182-5.36-25.048 4.692-4.589 9.479-2.106 22.553 6.848 25.595v.001ZM188.505 442.307c3.03 2.772 5.663 9.19 17.806-.967 3.055-2.556 4.224-6.186 1.957-9.8-1.45-2.312-3.608-3.835-5.516-5.351l-2.488-2.251c-2.235.651-6.033-.052-8.445.757-2.833.95-3.541 2.256-5.227 3.592-.764 5.133 1.912 14.062 1.913 14.02ZM187.288 441.854c-2.703-3.968-6.633-13.808-14.966-8.417-4.524 2.927-4.088 13.503.221 20.408 4.54.528 7.966.403 11.293-1.901 3.724-2.58 3.343-5.028 3.452-10.09ZM241.757 175.931c2.542 4.852 6.438 8.928 12.61 10.282 6.375 1.399 16.479 1.29 19.823-3.06 2.78-2.622 2.941-3.544 4.672-7.222.976-8.43 1.597-18.726-4.607-23.163-4.893-3.498-19.419-2.942-22.717.884-9.149 2.471-11.003 12.553-9.781 22.279ZM57.208 342.978c3.504.119 7.653-1.681 9.484-4.433 2.2-3.304.892-7.552.192-11.383-1.62-8.86-.894-15.681-9.275-18.112l-9.092-1.211-2.167-1.058c-.133-.079-.378-.263-.569-.391-2.004-.527-2.704-.393-4.203.037-6.643.626-10.456 3.471-11.422 9.846-1.819 7.196-.618 15.616 3.302 21.187 4.105 5.836 9.948 7.928 18.769 7.551 4.98-2.034 4.883-1.677 4.98-2.034v.001ZM68.882 88.75l.233 1.187c.791-.178 10.47-.13 13.101-.34 3.231-3.04 6.047-3.429 8.392-7.232 2.69-4.366 1.56-8.262-1.177-11.181-3.207-3.421-14.881-12.787-19.974-6.584-5.813 1.51-15.814 20.883-.575 24.15ZM54.897 114.09c2.591 2.174 9.008 1.582 12.21.559 3.946-1.26 5.89-4.373 7.288-7.206 4.961-10.042-3.365-13.494-7.58-17.72l-5.853-2.005c-6.479-.553-8.55 1.502-11.406 5.772-2.878 4.303-3.648 7.062-3.355 12.638 1.47 3.991 4.078 7.501 8.696 7.962ZM176.162 35.007c2.773-8.759-.834-12.936-8.576-15.044-7.686-2.093-15.299-1.303-15.894 7.732-1.804 27.379 20.403 23.336 23.509 8.794l.962-1.482h-.001ZM96.76 429.855c-1.15 1.22 1.761.987-2.055.987l-1.368 1.039c-.581 8.081 1.182 9.698 7.357 12.741 5.727 2.823 9.695 3.444 12.828-2.539 2.056-3.926 3.971-11.257.491-14.717-4.387-4.363-9.005-3.045-15.34-1.467l-1.047.919c-.179.157-.739 2.538-.867 3.037ZM84.335 64.835c7.856 8.055 33.091 5.204 16.51-16.568-4.957-6.51-9.943-8.451-16.479-1.439-3.697 3.967-8.96 13.196-1.454 16.857.143 1.172-.192.688 1.423 1.15ZM221.537 63.072c-1.203 1.681 1.496 1.41-2.789 1.737-2.393 4.096-12.231 6.401-9.416 15.354 1.858 5.912 8.181 9.723 15.659 9.958l7.692-.617c.582-.587.445-.445 1.362-1.093l.978-.63c6.405-4.21 7.203-8.972 2.984-16.31-8.201-14.266-12.969-6.514-16.47-8.399ZM83.398 404.635c8.39-4.57 8.198-22.226-9.613-24.401l-1.098.482c-4.302 1.801-7.863 3.147-10.317 7.129-1.515.93-1.745 1.368-2.319 3.573-.82 12.113 6.117 18.562 17.888 16.508 1.305-2.099-.162-.769 1.83-1.941 1.713-1.008.097-.224 2.463-.707 2.057.216 1.073.257 1.166-.643ZM104.863 50.8c5.235 3.46 10.466 7.157 17.391 1.675 4.762-3.77 3.024-13.68.347-19.178-6.696-13.75-31.278 2.037-21.452 12.598l3.714 4.906Z" stroke="#fff" stroke-width=".756" stroke-miterlimit="22.926"/><path clip-rule="evenodd" d="M129.318 453.885c9.161-13.002-.269-27.522-9.367-19.812-9.445 8.005-7.979 21.76 9.367 19.812ZM97.525 426.839c.17-.145.878-.597.004-1.445-1.147-1.113-1.125-1.624-1.53-3.763 1.516-1.404.382-1.208 3.103-1.311 1.372-1.143.45-2.48-.195-4.128l-2.19-3.01c-.116-2.665-1.886-3.373-5.328-5.241-1.906-.733-2.638-1.179-4.751-1.478-4.068-.498-3.796-.741-8.317 2.156-1.63 1.917-1.867 2.656-2.912 6.413-.878 3.154-.003 6.561.73 8.771 6.063 6.591 10.242 6.438 19.606 4.097.628-.407 1.057-.626 1.78-1.061ZM238.959 386.51c-6.741-5.494-7.949-4.23-10.88-6.241-6.586.936-8.831 2.073-12.301 6.802-1.461 1.991-2.62 3.977-2.656 6.907-.027 2.285.658 5.922 2.251 6.685 1.315 3.506 1.857 2.673 3.475 5.224 12.591 5.558 23.944 1.079 22.994-14.964l-2.883-4.413Z" stroke="#fff" stroke-width=".756" stroke-miterlimit="22.926"/><path clip-rule="evenodd" d="M139.424 436.462c-7.333 4.205-11.11 23.513 5.679 21.91 9.784-.933 5.427-28.277-5.679-21.91ZM200.462 69.207c1.028-.172 12.479.808 16.422-4.42l1.863.022.268-1.49c10.747-9.37-9.913-28.858-16.296-16.82l-1.623.715c-6.883 10.78-10.138 11.527-1.983 20.408.872.95.402.302 1.349 1.585ZM202.285 424.304c2.008 1.042 2.366 2.093 4.731 3.697 4.171 1.459 7.5 2.642 11.888.621 2.345-1.08 5.936-4.515 6.994-6.885 2.396-5.367-.228-15.552-12.151-14.971l-1.042.151c-3.074 2.403-5.06 2.574-7.934 6.055-3.484 4.222-2.346 6.067-2.486 11.332Z" stroke="#fff" stroke-width=".756" stroke-miterlimit="22.926"/><path clip-rule="evenodd" d="M166.776 442.28c-1.673-8.411-14.63-11.631-15.054 6.227-.154 6.486-.02 10.23 7.197 9.894 6.009-.279 9.317-2.835 9.593-9.125-.172-3.46-.237-4.609-1.736-6.996Z" stroke="#fff" stroke-width=".756" stroke-miterlimit="22.926"/><path d="M3.726 212h-.88v-5.601c-.21.202-.49.404-.834.606a5.81 5.81 0 0 1-.923.454v-.85a5.325 5.325 0 0 0 1.289-.839c.368-.329.628-.648.781-.958h.567V212Zm3.608-3.882c-.365-.133-.635-.324-.81-.571a1.497 1.497 0 0 1-.264-.889c0-.521.187-.958.561-1.313.375-.355.873-.533 1.494-.533.625 0 1.128.183 1.51.547.38.362.57.803.57 1.324 0 .332-.087.621-.263.869-.173.244-.436.433-.791.566.44.143.773.375 1 .694.232.319.348.699.348 1.142 0 .612-.217 1.126-.65 1.543-.433.417-1.003.625-1.709.625-.706 0-1.276-.208-1.709-.625-.433-.42-.65-.942-.65-1.567 0-.466.118-.855.352-1.167.238-.316.575-.531 1.011-.645Zm-.176-1.489c0 .338.11.615.327.83.218.215.502.322.85.322.338 0 .615-.106.83-.317.218-.215.327-.477.327-.786 0-.323-.112-.593-.337-.811a1.128 1.128 0 0 0-.83-.332c-.335 0-.613.108-.835.322a1.038 1.038 0 0 0-.332.772Zm-.283 3.306c0 .25.059.493.176.727.12.234.298.417.532.547.234.127.487.19.757.19.42 0 .766-.135 1.04-.405.273-.27.41-.613.41-1.03 0-.423-.142-.773-.425-1.05-.28-.277-.631-.415-1.054-.415-.414 0-.757.137-1.03.41-.27.274-.406.615-.406 1.026ZM5.726 172h-.88v-5.601c-.21.202-.49.404-.834.606a5.81 5.81 0 0 1-.923.454v-.85a5.325 5.325 0 0 0 1.289-.839c.368-.329.628-.648.781-.958h.567V172Zm2.314-6.221v-.844h4.634v.683c-.456.485-.908 1.13-1.358 1.934a11.863 11.863 0 0 0-1.035 2.48A9.226 9.226 0 0 0 9.944 172h-.903c.01-.563.12-1.243.332-2.041.212-.798.514-1.566.908-2.305.397-.742.819-1.367 1.265-1.875H8.04ZM11.726 130h-.88v-5.601c-.21.202-.49.404-.834.606-.342.202-.65.353-.923.454v-.85a5.324 5.324 0 0 0 1.289-.839c.368-.329.628-.648.781-.958h.567V130Zm6.816-5.405-.874.068c-.078-.345-.189-.596-.332-.752a1.162 1.162 0 0 0-.879-.376c-.28 0-.526.078-.737.235-.277.201-.495.496-.655.883-.16.388-.242.939-.249 1.656a2.03 2.03 0 0 1 .777-.718c.306-.156.626-.235.962-.235.586 0 1.084.217 1.494.65.413.43.62.986.62 1.67 0 .449-.098.867-.293 1.255a2.103 2.103 0 0 1-.796.883 2.172 2.172 0 0 1-1.152.308c-.733 0-1.33-.268-1.792-.806-.462-.54-.694-1.429-.694-2.666 0-1.383.256-2.389.767-3.017.446-.547 1.046-.821 1.802-.821.563 0 1.024.158 1.382.474.36.316.577.752.649 1.309Zm-3.589 3.086c0 .302.064.592.19.869.13.276.311.488.542.635.232.143.474.214.728.214.371 0 .69-.149.957-.449.267-.299.4-.706.4-1.221 0-.494-.131-.883-.395-1.167a1.297 1.297 0 0 0-.996-.429c-.397 0-.734.143-1.01.429-.277.284-.416.656-.416 1.119ZM27.726 93h-.88v-5.6c-.21.201-.49.403-.834.605a5.82 5.82 0 0 1-.923.454v-.85a5.306 5.306 0 0 0 1.289-.84c.368-.328.628-.647.781-.957h.567V93Zm2.255-1.875.923-.078c.069.45.227.788.474 1.016.25.224.552.336.903.336.423 0 .782-.16 1.075-.478.292-.32.439-.742.439-1.27 0-.5-.142-.896-.425-1.186-.28-.29-.648-.435-1.103-.435-.284 0-.54.065-.767.196a1.468 1.468 0 0 0-.537.498l-.825-.108.693-3.677h3.56v.84h-2.857l-.386 1.924c.43-.3.881-.45 1.353-.45.625 0 1.152.217 1.582.65.43.433.645.99.645 1.67 0 .648-.19 1.208-.567 1.68-.459.58-1.086.87-1.88.87-.65 0-1.183-.183-1.596-.548-.41-.364-.645-.848-.704-1.45ZM46.726 63h-.88v-5.6c-.21.201-.49.403-.834.605a5.82 5.82 0 0 1-.923.454v-.85a5.306 5.306 0 0 0 1.289-.84c.368-.328.628-.647.781-.956h.567V63Zm5.073 0v-1.714h-3.106v-.806l3.267-4.638h.718v4.639h.967v.805h-.967V63h-.88Zm0-2.52v-3.227l-2.241 3.227h2.24ZM70.726 37h-.88v-5.6c-.21.201-.49.403-.834.605a5.82 5.82 0 0 1-.923.454v-.85a5.306 5.306 0 0 0 1.289-.84c.368-.328.628-.647.781-.956h.567V37Zm2.26-1.89.88-.117c.1.498.271.858.512 1.08.244.217.54.326.889.326.413 0 .761-.143 1.044-.43.287-.286.43-.64.43-1.064 0-.403-.132-.735-.395-.996-.264-.264-.6-.395-1.006-.395-.166 0-.373.032-.62.097l.097-.771c.059.006.106.01.142.01a1.81 1.81 0 0 0 1.01-.293c.3-.196.45-.497.45-.904 0-.322-.11-.589-.327-.8-.218-.212-.5-.318-.845-.318-.342 0-.627.108-.854.322-.228.215-.375.538-.44.967l-.879-.156c.108-.59.352-1.045.733-1.367.38-.326.854-.488 1.42-.488.391 0 .75.084 1.08.253.328.166.58.394.752.684.175.29.263.597.263.923 0 .31-.083.59-.249.845-.166.254-.411.455-.737.605.423.098.752.301.986.61.235.306.352.69.352 1.153a2.12 2.12 0 0 1-.684 1.591c-.456.434-1.032.65-1.728.65-.629 0-1.151-.187-1.568-.562-.413-.374-.65-.859-.708-1.455ZM104.726 21h-.879v-5.6c-.212.201-.49.403-.835.605-.342.202-.65.353-.923.454v-.85a5.32 5.32 0 0 0 1.289-.84c.368-.328.628-.647.781-.957h.567V21Zm6.875-.845V21h-4.732a1.562 1.562 0 0 1 .103-.61c.12-.323.312-.64.576-.953.267-.312.651-.673 1.152-1.084.778-.638 1.304-1.142 1.577-1.513.274-.375.411-.728.411-1.06 0-.348-.126-.641-.376-.879-.248-.24-.572-.361-.972-.361-.423 0-.762.127-1.016.38-.254.255-.382.606-.386 1.056l-.903-.093c.062-.674.295-1.187.698-1.538.404-.355.946-.533 1.626-.533.687 0 1.231.19 1.631.572.401.38.601.853.601 1.416 0 .286-.059.568-.176.845-.117.276-.312.568-.586.874-.27.306-.721.726-1.352 1.26-.528.442-.866.743-1.016.903-.15.156-.273.314-.371.473h3.511ZM135.726 9h-.879V3.4c-.212.201-.49.403-.835.605-.342.202-.65.353-.923.454v-.85a5.32 5.32 0 0 0 1.289-.84c.368-.328.628-.647.781-.957h.567V9Zm4.824 0h-.879V3.4c-.212.201-.49.403-.835.605a5.803 5.803 0 0 1-.923.454v-.85a5.302 5.302 0 0 0 1.289-.84c.368-.328.628-.647.781-.957h.567V9ZM172.034 8.155V9h-4.731a1.543 1.543 0 0 1 .102-.61 3.28 3.28 0 0 1 .576-.953c.267-.312.651-.673 1.153-1.083.778-.639 1.304-1.143 1.577-1.514.273-.375.41-.728.41-1.06 0-.348-.125-.641-.376-.879-.247-.24-.571-.361-.972-.361-.423 0-.761.127-1.015.38-.254.255-.383.606-.386 1.056l-.903-.093c.062-.674.294-1.187.698-1.538.404-.355.946-.533 1.626-.533.687 0 1.23.19 1.631.572.4.38.6.853.6 1.416 0 .286-.058.568-.175.845-.118.276-.313.568-.586.874-.27.306-.721.725-1.353 1.26-.527.442-.866.743-1.015.903-.15.156-.274.314-.372.473h3.511Zm4.258.845h-.879V3.4c-.212.201-.49.403-.835.605a5.803 5.803 0 0 1-.923.454v-.85a5.302 5.302 0 0 0 1.289-.84c.368-.328.629-.647.782-.957h.566V9ZM202.034 17.155V18h-4.731a1.544 1.544 0 0 1 .102-.61 3.28 3.28 0 0 1 .576-.953c.267-.312.651-.673 1.153-1.084.778-.637 1.304-1.142 1.577-1.513.273-.374.41-.728.41-1.06 0-.348-.125-.641-.376-.879-.247-.24-.571-.361-.972-.361-.423 0-.761.127-1.015.38-.254.255-.383.606-.386 1.056l-.903-.093c.062-.674.294-1.187.698-1.538.404-.355.946-.533 1.626-.533.687 0 1.23.19 1.631.572.4.38.6.853.6 1.416 0 .286-.058.568-.175.845-.118.276-.313.568-.586.874-.27.306-.721.726-1.353 1.26-.527.442-.866.743-1.015.903-.15.156-.274.314-.372.473h3.511Zm5.567 0V18h-4.732a1.562 1.562 0 0 1 .103-.61c.12-.323.312-.64.576-.953.267-.312.651-.673 1.152-1.084.778-.637 1.304-1.142 1.577-1.513.274-.374.411-.728.411-1.06 0-.348-.126-.641-.376-.879-.248-.24-.572-.361-.972-.361-.423 0-.762.127-1.016.38-.254.255-.382.606-.386 1.056l-.903-.093c.062-.674.295-1.187.698-1.538.404-.355.946-.533 1.626-.533.687 0 1.231.19 1.631.572.401.38.601.853.601 1.416 0 .286-.059.568-.176.845-.117.276-.312.568-.586.874-.27.306-.721.726-1.352 1.26-.528.442-.866.743-1.016.903-.15.156-.273.314-.371.473h3.511ZM235.034 41.155V42h-4.731a1.544 1.544 0 0 1 .102-.61 3.28 3.28 0 0 1 .576-.953c.267-.312.651-.673 1.153-1.084.778-.638 1.304-1.142 1.577-1.513.273-.375.41-.728.41-1.06 0-.348-.125-.641-.376-.879-.247-.24-.571-.361-.972-.361-.423 0-.761.127-1.015.38-.254.255-.383.606-.386 1.056l-.903-.093c.062-.674.294-1.187.698-1.538.404-.355.946-.532 1.626-.532.687 0 1.23.19 1.631.57.4.382.6.854.6 1.417 0 .286-.058.568-.175.845-.118.276-.313.568-.586.874-.27.306-.721.726-1.353 1.26-.527.442-.866.743-1.015.903-.15.156-.274.314-.372.473h3.511Zm.952-1.045.879-.117c.101.498.272.858.513 1.08.244.217.54.326.889.326.413 0 .761-.143 1.045-.43.286-.286.429-.64.429-1.064 0-.403-.132-.735-.395-.996-.264-.264-.599-.395-1.006-.395a2.52 2.52 0 0 0-.62.097l.097-.771c.059.006.106.01.142.01.374 0 .711-.098 1.011-.293.299-.196.449-.497.449-.904 0-.322-.109-.589-.327-.8-.218-.212-.5-.318-.845-.318-.342 0-.627.108-.854.322-.228.215-.375.538-.44.967l-.879-.156c.108-.59.352-1.045.733-1.367.381-.326.854-.489 1.421-.489.39 0 .75.085 1.079.254.328.166.579.394.752.684.175.29.263.597.263.923 0 .31-.083.59-.249.845-.166.254-.412.455-.737.605.423.098.752.301.986.61.235.306.352.69.352 1.153a2.12 2.12 0 0 1-.684 1.591c-.455.434-1.032.65-1.728.65-.629 0-1.151-.187-1.568-.562-.413-.374-.649-.859-.708-1.455ZM256.034 67.155V68h-4.731a1.544 1.544 0 0 1 .102-.61 3.28 3.28 0 0 1 .576-.953c.267-.312.651-.673 1.153-1.084.778-.637 1.304-1.142 1.577-1.513.273-.375.41-.728.41-1.06 0-.348-.125-.641-.376-.879-.247-.24-.571-.361-.972-.361-.423 0-.761.127-1.015.38-.254.255-.383.606-.386 1.056l-.903-.093c.062-.674.294-1.187.698-1.538.404-.355.946-.532 1.626-.532.687 0 1.23.19 1.631.57.4.382.6.854.6 1.417 0 .286-.058.568-.175.845-.118.276-.313.568-.586.874-.27.305-.721.725-1.353 1.26-.527.442-.866.743-1.015.903-.15.156-.274.314-.372.473h3.511Zm3.765.845v-1.714h-3.106v-.805l3.267-4.64h.718v4.64h.967v.805h-.967V68h-.879Zm0-2.52v-3.227l-2.241 3.228h2.241ZM270.034 95.155V96h-4.731a1.544 1.544 0 0 1 .102-.61 3.28 3.28 0 0 1 .576-.953c.267-.312.651-.673 1.153-1.084.778-.637 1.304-1.142 1.577-1.513.273-.374.41-.728.41-1.06 0-.348-.125-.641-.376-.879-.247-.24-.571-.361-.972-.361-.423 0-.761.127-1.015.38-.254.255-.383.606-.386 1.056l-.903-.093c.062-.674.294-1.187.698-1.538.404-.355.946-.532 1.626-.532.687 0 1.23.19 1.631.57.4.382.6.854.6 1.417 0 .286-.058.568-.175.844-.118.277-.313.569-.586.875-.27.305-.721.725-1.353 1.26-.527.442-.866.743-1.015.903-.15.156-.274.314-.372.473h3.511Zm.947-1.03.923-.078c.069.45.227.788.474 1.016.251.224.552.336.903.336.423 0 .781-.16 1.074-.478.293-.32.44-.742.44-1.27 0-.5-.142-.896-.425-1.186-.28-.29-.648-.435-1.103-.435-.284 0-.539.065-.767.196a1.466 1.466 0 0 0-.537.498l-.825-.108.693-3.677h3.56v.84h-2.857l-.386 1.924c.43-.3.881-.45 1.353-.45.625 0 1.152.217 1.582.65.43.433.645.99.645 1.67 0 .648-.189 1.208-.567 1.68-.459.58-1.085.87-1.88.87-.651 0-1.183-.183-1.596-.548-.411-.364-.645-.848-.704-1.45ZM287.034 129.155V130h-4.731a1.54 1.54 0 0 1 .102-.61c.121-.323.313-.64.576-.952.267-.313.651-.674 1.153-1.084.778-.639 1.304-1.143 1.577-1.514.273-.375.41-.728.41-1.06 0-.348-.125-.641-.376-.879-.247-.241-.571-.361-.972-.361-.423 0-.761.127-1.015.381-.254.254-.383.605-.386 1.055l-.903-.093c.062-.674.294-1.187.698-1.538.404-.355.946-.533 1.626-.533.687 0 1.23.191 1.631.572.4.381.6.853.6 1.416 0 .286-.058.568-.175.845-.118.276-.313.568-.586.874-.27.306-.721.725-1.353 1.259-.527.443-.866.744-1.015.904a2.83 2.83 0 0 0-.372.473h3.511Zm5.508-4.56-.874.068c-.078-.345-.189-.596-.332-.752a1.163 1.163 0 0 0-.879-.376c-.28 0-.526.078-.737.235-.277.201-.495.496-.655.883-.159.388-.242.939-.249 1.656.212-.323.471-.562.777-.718a2.09 2.09 0 0 1 .962-.235c.586 0 1.084.217 1.494.65.413.43.62.986.62 1.67 0 .449-.098.867-.293 1.255a2.099 2.099 0 0 1-.796.883 2.17 2.17 0 0 1-1.152.308c-.733 0-1.33-.268-1.792-.806-.462-.54-.694-1.429-.694-2.666 0-1.383.256-2.389.767-3.017.446-.547 1.047-.821 1.802-.821.563 0 1.024.158 1.382.474.361.316.577.752.649 1.309Zm-3.589 3.086c0 .302.064.592.191.869.13.276.31.488.542.635.231.143.473.214.727.214.371 0 .69-.149.957-.449.267-.299.401-.706.401-1.221 0-.494-.132-.883-.396-1.167a1.298 1.298 0 0 0-.996-.429c-.397 0-.734.143-1.011.429-.277.284-.415.656-.415 1.119ZM298.034 171.155V172h-4.731a1.54 1.54 0 0 1 .102-.61c.121-.323.313-.64.576-.952.267-.313.651-.674 1.153-1.084.778-.639 1.304-1.143 1.577-1.514.273-.375.41-.728.41-1.06 0-.348-.125-.641-.376-.879-.247-.241-.571-.361-.972-.361-.423 0-.761.127-1.015.381-.254.254-.383.605-.386 1.055l-.903-.093c.062-.674.294-1.187.698-1.538.404-.355.946-.533 1.626-.533.687 0 1.23.191 1.631.572.4.381.6.853.6 1.416 0 .286-.058.568-.175.845-.118.276-.313.568-.586.874-.27.306-.721.725-1.353 1.259-.527.443-.866.744-1.015.904a2.83 2.83 0 0 0-.372.473h3.511Zm1.006-5.376v-.844h4.634v.683c-.456.485-.908 1.13-1.358 1.934a11.852 11.852 0 0 0-1.035 2.48 9.218 9.218 0 0 0-.337 1.968h-.903c.01-.563.12-1.243.332-2.041a10.75 10.75 0 0 1 .908-2.305c.397-.742.819-1.367 1.265-1.875h-3.506ZM299.034 211.155V212h-4.731a1.54 1.54 0 0 1 .102-.61c.121-.323.313-.64.576-.952.267-.313.651-.674 1.153-1.084.778-.639 1.304-1.143 1.577-1.514.273-.375.41-.728.41-1.06 0-.348-.125-.641-.376-.879-.247-.241-.571-.361-.972-.361-.423 0-.761.127-1.015.381-.254.254-.383.605-.386 1.055l-.903-.093c.062-.674.294-1.187.698-1.538.404-.355.946-.533 1.626-.533.687 0 1.23.191 1.631.572.4.381.6.853.6 1.416 0 .286-.058.568-.175.845-.118.276-.313.568-.586.874-.27.306-.721.725-1.353 1.259-.527.443-.866.744-1.015.904a2.83 2.83 0 0 0-.372.473h3.511Zm2.3-3.037c-.365-.133-.635-.324-.811-.571a1.502 1.502 0 0 1-.263-.889c0-.521.187-.958.561-1.313.375-.355.873-.533 1.494-.533.625 0 1.128.183 1.509.547.381.362.572.803.572 1.324 0 .332-.088.621-.264.869-.173.244-.436.433-.791.566.439.143.773.375 1.001.694.231.319.346.699.346 1.142 0 .612-.216 1.126-.649 1.543-.433.417-1.003.625-1.709.625-.706 0-1.276-.208-1.709-.625-.433-.42-.649-.942-.649-1.567 0-.466.117-.855.351-1.167.238-.316.575-.531 1.011-.645Zm-.176-1.489c0 .338.109.615.327.83.218.215.502.322.85.322.339 0 .615-.106.83-.317.218-.215.327-.477.327-.786 0-.323-.112-.593-.337-.811a1.127 1.127 0 0 0-.83-.332c-.335 0-.613.108-.835.322a1.04 1.04 0 0 0-.332.772Zm-.283 3.306c0 .25.059.493.176.727.12.234.298.417.532.547.234.127.487.19.757.19.42 0 .766-.135 1.04-.405.273-.27.41-.613.41-1.03 0-.423-.142-.773-.425-1.05-.28-.277-.631-.415-1.054-.415a1.4 1.4 0 0 0-1.031.41c-.27.274-.405.615-.405 1.026ZM293.42 286.11l.879-.117c.101.498.272.858.513 1.079.244.218.54.327.888.327.414 0 .762-.143 1.045-.429.287-.287.43-.642.43-1.065 0-.403-.132-.735-.396-.996-.263-.263-.599-.395-1.006-.395-.166 0-.372.032-.62.097l.098-.771c.059.006.106.01.142.01a1.81 1.81 0 0 0 1.01-.293c.3-.196.45-.497.45-.904 0-.322-.11-.589-.328-.8-.218-.212-.499-.318-.844-.318-.342 0-.627.108-.855.322-.228.215-.374.538-.439.967l-.879-.156c.107-.589.351-1.045.732-1.367.381-.326.855-.489 1.421-.489.391 0 .75.085 1.079.254.329.166.58.394.752.684.176.29.264.597.264.923 0 .309-.083.591-.249.845-.166.253-.412.455-.737.605.423.098.751.301.986.61.234.306.351.691.351 1.153a2.12 2.12 0 0 1-.683 1.592c-.456.432-1.032.649-1.729.649-.628 0-1.15-.187-1.567-.562-.413-.374-.649-.859-.708-1.455Zm6.914-1.992c-.365-.133-.635-.324-.811-.571a1.502 1.502 0 0 1-.263-.889c0-.521.187-.958.561-1.313.375-.355.873-.533 1.494-.533.625 0 1.128.183 1.509.547.381.362.572.803.572 1.324 0 .332-.088.621-.264.869-.173.244-.436.433-.791.566.439.143.773.375 1.001.694.231.319.346.699.346 1.142 0 .612-.216 1.126-.649 1.543-.433.417-1.003.625-1.709.625-.706 0-1.276-.208-1.709-.625-.433-.42-.649-.942-.649-1.567 0-.466.117-.855.351-1.167.238-.316.575-.531 1.011-.645Zm-.176-1.489c0 .338.109.615.327.83.218.215.502.322.85.322.339 0 .615-.106.83-.317.218-.215.327-.477.327-.786 0-.323-.112-.593-.337-.811a1.127 1.127 0 0 0-.83-.332c-.335 0-.613.108-.835.322a1.04 1.04 0 0 0-.332.772Zm-.283 3.306c0 .25.059.493.176.727.12.234.298.417.532.547.234.127.487.19.757.19.42 0 .766-.135 1.04-.405.273-.27.41-.613.41-1.03 0-.423-.142-.773-.425-1.05-.28-.277-.631-.415-1.054-.415a1.4 1.4 0 0 0-1.031.41c-.27.274-.405.615-.405 1.026ZM287.42 327.11l.879-.117c.101.498.272.858.513 1.079.244.218.54.327.888.327.414 0 .762-.143 1.045-.429.287-.287.43-.642.43-1.065 0-.403-.132-.735-.396-.996-.263-.263-.599-.395-1.006-.395-.166 0-.372.032-.62.097l.098-.771c.059.006.106.01.142.01a1.81 1.81 0 0 0 1.01-.293c.3-.196.45-.497.45-.904 0-.322-.11-.589-.328-.8-.218-.212-.499-.318-.844-.318-.342 0-.627.108-.855.322-.228.215-.374.538-.439.967l-.879-.156c.107-.589.351-1.045.732-1.367.381-.326.855-.489 1.421-.489.391 0 .75.085 1.079.254.329.166.58.394.752.684.176.29.264.597.264.923 0 .309-.083.591-.249.845-.166.253-.412.455-.737.605.423.098.751.301.986.61.234.306.351.691.351 1.153a2.12 2.12 0 0 1-.683 1.592c-.456.432-1.032.649-1.729.649-.628 0-1.15-.187-1.567-.562-.413-.374-.649-.859-.708-1.455Zm5.62-4.331v-.844h4.634v.683c-.456.485-.908 1.13-1.358 1.934a11.852 11.852 0 0 0-1.035 2.48 9.218 9.218 0 0 0-.337 1.968h-.903c.01-.563.12-1.243.332-2.041a10.75 10.75 0 0 1 .908-2.305c.397-.742.819-1.367 1.265-1.875h-3.506ZM272.42 370.11l.879-.117c.101.498.272.858.513 1.079.244.218.54.327.888.327.414 0 .762-.143 1.045-.429.287-.287.43-.642.43-1.065 0-.403-.132-.735-.396-.996-.263-.263-.599-.395-1.006-.395-.166 0-.372.032-.62.097l.098-.771c.059.006.106.01.142.01a1.81 1.81 0 0 0 1.01-.293c.3-.196.45-.497.45-.904 0-.322-.11-.589-.328-.8-.218-.212-.499-.318-.844-.318-.342 0-.627.108-.855.322-.228.215-.374.538-.439.967l-.879-.156c.107-.589.351-1.045.732-1.367.381-.326.855-.489 1.421-.489.391 0 .75.085 1.079.254.329.166.58.394.752.684.176.29.264.597.264.923 0 .309-.083.591-.249.845-.166.253-.412.455-.737.605.423.098.751.301.986.61.234.306.351.691.351 1.153a2.12 2.12 0 0 1-.683 1.592c-.456.432-1.032.649-1.729.649-.628 0-1.15-.187-1.567-.562-.413-.374-.649-.859-.708-1.455Zm10.122-3.515-.874.068c-.078-.345-.189-.596-.332-.752a1.163 1.163 0 0 0-.879-.376c-.28 0-.526.078-.737.235-.277.201-.495.496-.655.883-.159.388-.242.939-.249 1.656.212-.323.471-.562.777-.718a2.09 2.09 0 0 1 .962-.235c.586 0 1.084.217 1.494.65.413.43.62.986.62 1.67 0 .449-.098.867-.293 1.255a2.099 2.099 0 0 1-.796.883 2.17 2.17 0 0 1-1.152.308c-.733 0-1.33-.268-1.792-.806-.462-.54-.694-1.429-.694-2.666 0-1.383.256-2.389.767-3.017.446-.547 1.047-.821 1.802-.821.563 0 1.024.158 1.382.474.361.316.577.752.649 1.309Zm-3.589 3.086c0 .302.064.592.191.869.13.276.31.488.542.635.231.143.473.214.727.214.371 0 .69-.149.957-.449.267-.299.401-.706.401-1.221 0-.494-.132-.883-.396-1.167a1.298 1.298 0 0 0-.996-.429c-.397 0-.734.143-1.011.429-.277.284-.415.656-.415 1.119ZM257.42 410.11l.879-.117c.101.498.272.858.513 1.079.244.218.54.327.888.327.414 0 .762-.143 1.045-.429.287-.287.43-.642.43-1.065 0-.403-.132-.735-.396-.996-.263-.263-.599-.395-1.006-.395-.166 0-.372.032-.62.097l.098-.771c.059.006.106.01.142.01a1.81 1.81 0 0 0 1.01-.293c.3-.196.45-.497.45-.904 0-.322-.11-.589-.328-.8-.218-.212-.499-.318-.844-.318-.342 0-.627.108-.855.322-.228.215-.374.538-.439.967l-.879-.156c.107-.589.351-1.045.732-1.367.381-.326.855-.489 1.421-.489.391 0 .75.085 1.079.254.329.166.58.394.752.684.176.29.264.597.264.923 0 .309-.083.591-.249.845-.166.253-.412.455-.737.605.423.098.751.301.986.61.234.306.351.691.351 1.153a2.12 2.12 0 0 1-.683 1.592c-.456.432-1.032.649-1.729.649-.628 0-1.15-.187-1.567-.562-.413-.374-.649-.859-.708-1.455Zm5.561.015.923-.078c.069.449.227.788.474 1.015.251.225.552.337.903.337.423 0 .781-.159 1.074-.478.293-.319.44-.742.44-1.27 0-.501-.142-.896-.425-1.186-.28-.29-.648-.435-1.103-.435a1.51 1.51 0 0 0-.767.196 1.467 1.467 0 0 0-.537.498l-.825-.108.693-3.677h3.56v.84h-2.857l-.386 1.924c.43-.299.881-.449 1.353-.449.625 0 1.152.216 1.582.649.43.433.645.99.645 1.67 0 .648-.189 1.208-.567 1.68-.459.579-1.085.869-1.88.869-.651 0-1.183-.182-1.596-.547-.411-.364-.645-.848-.704-1.45ZM234.42 439.11l.879-.117c.101.498.272.858.513 1.079.244.218.54.327.888.327.414 0 .762-.143 1.045-.429.287-.287.43-.642.43-1.065 0-.403-.132-.735-.396-.996-.263-.263-.599-.395-1.006-.395-.166 0-.372.032-.62.097l.098-.771c.059.006.106.01.142.01a1.81 1.81 0 0 0 1.01-.293c.3-.196.45-.497.45-.904 0-.322-.11-.589-.328-.8-.218-.212-.499-.318-.844-.318-.342 0-.627.108-.855.322-.228.215-.374.538-.439.967l-.879-.156c.107-.589.351-1.045.732-1.367.381-.326.855-.489 1.421-.489.391 0 .75.085 1.079.254.329.166.58.394.752.684.176.29.264.597.264.923 0 .309-.083.591-.249.845-.166.253-.412.455-.737.605.423.098.751.301.986.61.234.306.351.691.351 1.153a2.12 2.12 0 0 1-.683 1.592c-.456.432-1.032.649-1.729.649-.628 0-1.15-.187-1.567-.562-.413-.374-.649-.859-.708-1.455Zm8.379 1.89v-1.714h-3.106v-.806l3.267-4.638h.718v4.638h.967v.806h-.967V441h-.879Zm0-2.52v-3.227l-2.241 3.227h2.241ZM211.42 458.11l.879-.117c.101.498.272.858.513 1.079.244.218.54.327.888.327.414 0 .762-.143 1.045-.429.287-.287.43-.642.43-1.065 0-.403-.132-.735-.396-.996-.263-.263-.599-.395-1.006-.395-.166 0-.372.032-.62.097l.098-.771c.059.006.106.01.142.01a1.81 1.81 0 0 0 1.01-.293c.3-.196.45-.497.45-.904 0-.322-.11-.589-.328-.8-.218-.212-.499-.318-.844-.318-.342 0-.627.108-.855.322-.228.215-.374.538-.439.967l-.879-.156c.107-.589.351-1.045.732-1.367.381-.326.855-.489 1.421-.489.391 0 .75.085 1.079.254.329.166.58.394.752.684.176.29.264.597.264.923 0 .309-.083.591-.249.845-.166.253-.412.455-.737.605.423.098.751.301.986.61.234.306.351.691.351 1.153a2.12 2.12 0 0 1-.683 1.592c-.456.432-1.032.649-1.729.649-.628 0-1.15-.187-1.567-.562-.413-.374-.649-.859-.708-1.455Zm5.566 0 .879-.117c.101.498.272.858.513 1.079.244.218.54.327.889.327.413 0 .761-.143 1.045-.429a1.45 1.45 0 0 0 .429-1.065c0-.403-.132-.735-.395-.996-.264-.263-.599-.395-1.006-.395a2.52 2.52 0 0 0-.62.097l.097-.771c.059.006.106.01.142.01.374 0 .711-.098 1.011-.293.299-.196.449-.497.449-.904 0-.322-.109-.589-.327-.8-.218-.212-.5-.318-.845-.318-.342 0-.627.108-.854.322-.228.215-.375.538-.44.967l-.879-.156c.108-.589.352-1.045.733-1.367.381-.326.854-.489 1.421-.489.39 0 .75.085 1.079.254.328.166.579.394.752.684.175.29.263.597.263.923 0 .309-.083.591-.249.845-.166.253-.412.455-.737.605.423.098.752.301.986.61.235.306.352.691.352 1.153 0 .625-.228 1.155-.684 1.592-.455.432-1.032.649-1.728.649-.629 0-1.151-.187-1.568-.562-.413-.374-.649-.859-.708-1.455ZM182.42 473.11l.879-.117c.101.498.272.858.513 1.079.244.218.54.327.888.327.414 0 .762-.143 1.045-.429.287-.287.43-.642.43-1.065 0-.403-.132-.735-.396-.996-.263-.263-.599-.395-1.006-.395-.166 0-.372.032-.62.097l.098-.771c.059.006.106.01.142.01a1.81 1.81 0 0 0 1.01-.293c.3-.196.45-.497.45-.904 0-.322-.11-.589-.328-.8-.218-.212-.499-.318-.844-.318-.342 0-.627.108-.855.322-.228.215-.374.538-.439.967l-.879-.156c.107-.589.351-1.045.732-1.367.381-.326.855-.489 1.421-.489.391 0 .75.085 1.079.254.329.166.58.394.752.684.176.29.264.597.264.923 0 .309-.083.591-.249.845-.166.253-.412.455-.737.605.423.098.751.301.986.61.234.306.351.691.351 1.153a2.12 2.12 0 0 1-.683 1.592c-.456.432-1.032.649-1.729.649-.628 0-1.15-.187-1.567-.562-.413-.374-.649-.859-.708-1.455Zm10.181 1.045V475h-4.732a1.558 1.558 0 0 1 .103-.61c.12-.323.312-.64.576-.952.267-.313.651-.674 1.152-1.084.778-.639 1.304-1.143 1.577-1.514.274-.375.411-.728.411-1.06 0-.348-.126-.641-.376-.879-.248-.241-.572-.361-.972-.361-.423 0-.762.127-1.016.381s-.382.605-.386 1.055l-.903-.093c.062-.674.295-1.187.698-1.538.404-.355.946-.533 1.626-.533.687 0 1.231.191 1.631.572.401.381.601.853.601 1.416 0 .286-.059.568-.176.845-.117.276-.312.568-.586.874-.27.306-.721.725-1.352 1.259-.528.443-.866.744-1.016.904a2.82 2.82 0 0 0-.371.473h3.511ZM153.42 477.11l.879-.117c.101.498.272.858.513 1.079.244.218.54.327.888.327.414 0 .762-.143 1.045-.429.287-.287.43-.642.43-1.065 0-.403-.132-.735-.396-.996-.263-.263-.599-.395-1.006-.395-.166 0-.372.032-.62.097l.098-.771c.059.006.106.01.142.01a1.81 1.81 0 0 0 1.01-.293c.3-.196.45-.497.45-.904 0-.322-.11-.589-.328-.8-.218-.212-.499-.318-.844-.318-.342 0-.627.108-.855.322-.228.215-.374.538-.439.967l-.879-.156c.107-.589.351-1.045.732-1.367.381-.326.855-.489 1.421-.489.391 0 .75.085 1.079.254.329.166.58.394.752.684.176.29.264.597.264.923 0 .309-.083.591-.249.845-.166.253-.412.455-.737.605.423.098.751.301.986.61.234.306.351.691.351 1.153a2.12 2.12 0 0 1-.683 1.592c-.456.432-1.032.649-1.729.649-.628 0-1.15-.187-1.567-.562-.413-.374-.649-.859-.708-1.455Zm8.872 1.89h-.879v-5.601c-.212.202-.49.404-.835.606a5.795 5.795 0 0 1-.923.454v-.85a5.319 5.319 0 0 0 1.289-.839c.368-.329.629-.648.782-.958h.566V479ZM136.232 479v-1.714h-3.105v-.806l3.267-4.638h.717v4.638h.967v.806h-.967V479h-.879Zm0-2.52v-3.227l-2.241 3.227h2.241Zm6.06 2.52h-.879v-5.601c-.212.202-.49.404-.835.606a5.795 5.795 0 0 1-.923.454v-.85a5.319 5.319 0 0 0 1.289-.839c.368-.329.629-.648.782-.958h.566V479ZM108.232 472v-1.714h-3.105v-.806l3.267-4.638h.717v4.638h.967v.806h-.967V472h-.879Zm0-2.52v-3.227l-2.241 3.227h2.241Zm7.369 1.675V472h-4.732a1.558 1.558 0 0 1 .103-.61c.12-.323.312-.64.576-.952.267-.313.651-.674 1.152-1.084.778-.639 1.304-1.143 1.577-1.514.274-.375.411-.728.411-1.06 0-.348-.126-.641-.376-.879-.248-.241-.572-.361-.972-.361-.423 0-.762.127-1.016.381s-.382.605-.386 1.055l-.903-.093c.062-.674.295-1.187.698-1.538.404-.355.946-.533 1.626-.533.687 0 1.231.191 1.631.572.401.381.601.853.601 1.416 0 .286-.059.568-.176.845-.117.276-.312.568-.586.874-.27.306-.721.725-1.352 1.259-.528.443-.866.744-1.016.904a2.82 2.82 0 0 0-.371.473h3.511ZM84.232 460v-1.714h-3.105v-.806l3.267-4.638h.717v4.638h.967v.806h-.967V460h-.879Zm0-2.52v-3.227l-2.24 3.227h2.24Zm2.754.63.88-.117c.1.498.271.858.512 1.079.244.218.54.327.889.327.413 0 .761-.143 1.044-.429.287-.287.43-.642.43-1.065 0-.403-.132-.735-.395-.996-.264-.263-.6-.395-1.006-.395-.166 0-.373.032-.62.097l.097-.771c.059.006.106.01.142.01.374 0 .711-.098 1.01-.293.3-.196.45-.497.45-.904 0-.322-.11-.589-.327-.8-.218-.212-.5-.318-.845-.318a1.2 1.2 0 0 0-.854.322c-.228.215-.375.538-.44.967l-.879-.156c.108-.589.352-1.045.733-1.367.38-.326.854-.489 1.42-.489.391 0 .75.085 1.08.254.328.166.58.394.752.684.175.29.263.597.263.923 0 .309-.083.591-.249.845-.166.253-.411.455-.737.605.423.098.752.301.986.61.235.306.352.691.352 1.153 0 .625-.228 1.155-.684 1.592-.456.432-1.032.649-1.728.649-.629 0-1.151-.187-1.568-.562-.413-.374-.65-.859-.708-1.455ZM59.232 441v-1.714h-3.105v-.806l3.267-4.638h.717v4.638h.967v.806h-.967V441h-.879Zm0-2.52v-3.227l-2.24 3.227h2.24ZM64.8 441v-1.714h-3.106v-.806l3.267-4.638h.718v4.638h.966v.806h-.966V441h-.88Zm0-2.52v-3.227l-2.241 3.227h2.24ZM39.232 412v-1.714h-3.105v-.806l3.267-4.638h.717v4.638h.967v.806h-.967V412h-.879Zm0-2.52v-3.227l-2.24 3.227h2.24Zm2.75.645.922-.078c.069.449.226.788.474 1.015.25.225.552.337.903.337.423 0 .782-.159 1.075-.478.292-.319.439-.742.439-1.27 0-.501-.142-.896-.425-1.186-.28-.29-.648-.435-1.103-.435a1.51 1.51 0 0 0-.767.196 1.47 1.47 0 0 0-.537.498l-.825-.108.693-3.677h3.56v.84h-2.857l-.386 1.924c.43-.299.881-.449 1.353-.449.625 0 1.152.216 1.582.649.43.433.645.99.645 1.67 0 .648-.19 1.208-.567 1.68-.459.579-1.086.869-1.88.869-.65 0-1.183-.182-1.596-.547-.41-.364-.645-.848-.704-1.45ZM24.232 372v-1.714h-3.105v-.806l3.267-4.638h.717v4.638h.967v.806h-.967V372h-.879Zm0-2.52v-3.227l-2.24 3.227h2.24Zm7.31-2.885-.874.068c-.078-.345-.189-.596-.332-.752a1.162 1.162 0 0 0-.879-.376c-.28 0-.526.078-.737.235-.277.201-.495.496-.655.883-.16.388-.242.939-.249 1.656a2.03 2.03 0 0 1 .777-.718c.306-.156.626-.235.962-.235.586 0 1.084.217 1.494.65.413.43.62.986.62 1.67 0 .449-.098.867-.293 1.255a2.103 2.103 0 0 1-.796.883 2.172 2.172 0 0 1-1.152.308c-.733 0-1.33-.268-1.792-.806-.462-.54-.694-1.429-.694-2.666 0-1.383.256-2.389.767-3.017.446-.547 1.047-.821 1.802-.821.563 0 1.024.158 1.382.474.36.316.577.752.649 1.309Zm-3.589 3.086c0 .302.064.592.19.869.13.276.311.488.543.635.23.143.473.214.727.214.371 0 .69-.149.957-.449.267-.299.4-.706.4-1.221 0-.494-.131-.883-.395-1.167a1.297 1.297 0 0 0-.996-.429c-.397 0-.734.143-1.01.429-.277.284-.416.656-.416 1.119ZM10.232 329v-1.714H7.127v-.806l3.267-4.638h.717v4.638h.967v.806h-.967V329h-.879Zm0-2.52v-3.227l-2.24 3.227h2.24Zm2.808-3.701v-.844h4.634v.683c-.456.485-.908 1.13-1.358 1.934a11.863 11.863 0 0 0-1.035 2.48 9.23 9.23 0 0 0-.337 1.968h-.903c.01-.563.12-1.243.332-2.041a10.74 10.74 0 0 1 .908-2.305c.397-.742.819-1.367 1.265-1.875H13.04ZM3.232 290v-1.714H.127v-.806l3.267-4.638h.717v4.638h.967v.806h-.967V290h-.879Zm0-2.52v-3.227l-2.24 3.227h2.24Zm4.102-1.362c-.365-.133-.635-.324-.81-.571a1.497 1.497 0 0 1-.264-.889c0-.521.187-.958.561-1.313.375-.355.873-.533 1.494-.533.625 0 1.128.183 1.51.547.38.362.57.803.57 1.324 0 .332-.087.621-.263.869-.173.244-.436.433-.791.566.44.143.773.375 1 .694.232.319.348.699.348 1.142 0 .612-.217 1.126-.65 1.543-.433.417-1.003.625-1.709.625-.706 0-1.276-.208-1.709-.625-.433-.42-.65-.942-.65-1.567 0-.466.118-.855.352-1.167.238-.316.575-.531 1.011-.645Zm-.176-1.489c0 .338.11.615.327.83.218.215.502.322.85.322.338 0 .615-.106.83-.317.218-.215.327-.477.327-.786 0-.323-.112-.593-.337-.811a1.128 1.128 0 0 0-.83-.332c-.335 0-.613.108-.835.322a1.038 1.038 0 0 0-.332.772Zm-.283 3.306c0 .25.059.493.176.727.12.234.298.417.532.547.234.127.487.19.757.19.42 0 .766-.135 1.04-.405.273-.27.41-.613.41-1.03 0-.423-.142-.773-.425-1.05-.28-.277-.631-.415-1.054-.415-.414 0-.757.137-1.03.41-.27.274-.406.615-.406 1.026Z" fill="#fff"/><path clip-rule="evenodd" d="M32.373 150.54c-10.444 2.081-13.67 14.698-9.78 25.801 4.593 13.108 19.53 12 26.244 9.225 16.49-6.816 14.224-27.656-.783-33.031-4.573-1.637-10.849-2.958-15.681-1.995Z" stroke="#fff" stroke-width=".756" stroke-miterlimit="22.926"/><path clip-rule="evenodd" d="M32.51 223.542c2.5 3.147 7.521 3.806 12.074 3.572 6.137-.315 7.117-2.078 11.283-3.532.57-1.876-2.058-1.524 1.822-1.468 4.693-6.001 6.673-8.735 5.058-18.105-1.267-7.35-4.8-11.466-11.28-13.69-2.764-2.189-11.357-3.201-15.258-2.651-5.378.758-8.587 3.191-10.407 7.841-3.127 7.993-1.184 26.418 6.709 28.033ZM267.001 188.642c-4.75-3.943-16.914.664-20.829 3.138-5.544 3.503-8.818 9.797-8.419 17.829.951 19.176 27.318 21.34 31.274 13.388 2.335-.585 2.103-.689 3.57-2.57 1.135-1.455 1.498-2.133 2.233-3.799 1.477-3.351 1.967-7.409 1.95-11.519-.03-7.454-2.22-16.27-9.779-16.468v.001ZM136.497 19.598c-8.135 1.66-14.625 3.934-11.767 14.838 1.667 6.362 5.687 13.193 14.275 13.062 8.989-.138 10.306-8.645 10.538-16.685.277-9.668-4.04-13.052-13.046-11.215ZM196.947 49.065c3.54-.705 10.658-11.384-.72-17.904-10.837-6.21-15.157-4.008-18.883 5.038-1.172 6.563-3.5 13.949 3.339 17.462 6.681 3.432 13.275.477 16.264-4.596Z" stroke="#fff" stroke-width=".756" stroke-miterlimit="22.926"/><path d="M99.596 333v-9.8h.854l4.48 7.644h-.448l4.438-7.644h.854v9.8h-.994v-8.246h.238l-4.088 7h-.49l-4.116-7h.266V333h-.994Zm11.803 0 4.48-9.8h1.022l4.48 9.8h-1.092l-4.116-9.198h.42L112.477 333h-1.078Zm1.764-2.618.308-.84h5.698l.308.84h-6.314Zm9.839 2.618v-9.8h.854l6.762 8.512h-.448V323.2h1.022v9.8h-.854l-6.748-8.512h.448V333h-1.036Zm11.389 0v-9.8h3.99c1.045 0 1.96.21 2.744.63a4.522 4.522 0 0 1 1.848 1.722c.439.737.658 1.587.658 2.548 0 .961-.219 1.811-.658 2.548a4.615 4.615 0 0 1-1.848 1.736c-.784.411-1.699.616-2.744.616h-3.99Zm1.036-.896h2.898c.868 0 1.619-.168 2.254-.504a3.777 3.777 0 0 0 1.498-1.414c.355-.607.532-1.302.532-2.086 0-.793-.177-1.489-.532-2.086a3.684 3.684 0 0 0-1.498-1.4c-.635-.345-1.386-.518-2.254-.518h-2.898v8.008Zm10.53.896v-9.8h1.036v9.8h-1.036Zm4.225 0v-9.8h4.228c1.092 0 1.937.219 2.534.658.607.439.91 1.059.91 1.862 0 .532-.126.98-.378 1.344a2.269 2.269 0 0 1-1.008.826 3.37 3.37 0 0 1-1.386.28l.238-.336c.625 0 1.162.098 1.61.294.457.187.812.471 1.064.854.252.373.378.84.378 1.4 0 .831-.308 1.475-.924 1.932-.607.457-1.526.686-2.758.686h-4.508Zm1.036-.854h3.458c.859 0 1.517-.145 1.974-.434.457-.299.686-.77.686-1.414 0-.635-.229-1.097-.686-1.386-.457-.299-1.115-.448-1.974-.448h-3.57v-.854h3.234c.784 0 1.391-.149 1.82-.448.439-.299.658-.742.658-1.33 0-.597-.219-1.041-.658-1.33-.429-.299-1.036-.448-1.82-.448h-3.122v8.092Zm13.467.938c-1.251 0-2.236-.359-2.954-1.078-.719-.719-1.078-1.783-1.078-3.192V323.2h1.036v5.572c0 1.157.261 2.011.784 2.562.522.551 1.26.826 2.212.826.961 0 1.703-.275 2.226-.826.522-.551.784-1.405.784-2.562V323.2h1.008v5.614c0 1.409-.36 2.473-1.078 3.192-.71.719-1.69 1.078-2.94 1.078Zm7.14-.084v-9.8h1.036v8.904h5.488V333h-6.524Zm6.676 0 4.48-9.8h1.022l4.48 9.8h-1.092l-4.116-9.198h.42L179.579 333h-1.078Zm1.764-2.618.308-.84h5.698l.308.84h-6.314Zm9.839 2.618v-9.8h3.668c.83 0 1.544.135 2.142.406.597.261 1.054.644 1.372 1.148.326.495.49 1.097.49 1.806 0 .691-.164 1.288-.49 1.792-.318.495-.775.877-1.372 1.148-.598.261-1.312.392-2.142.392h-3.094l.462-.476V333h-1.036Zm6.692 0-2.52-3.556h1.12L197.93 333h-1.134Zm-5.656-3.5-.462-.49h3.066c.98 0 1.722-.215 2.226-.644.513-.429.77-1.031.77-1.806 0-.784-.257-1.391-.77-1.82-.504-.429-1.246-.644-2.226-.644h-3.066l.462-.49v5.894Z" fill="#fff"/></svg>